G04 start of page 6 for group -4063 idx -4063 *
G04 Title: wearlink, componentmask *
G04 Creator: pcb 1.99z *
G04 CreationDate: Sun Feb 24 14:25:00 2013 UTC *
G04 For: dijkstra *
G04 Format: Gerber/RS-274X *
G04 PCB-Dimensions (mil): 1326.38 433.46 *
G04 PCB-Coordinate-Origin: lower left *
%MOIN*%
%FSLAX25Y25*%
%LNTOPMASK*%
%ADD111R,0.0300X0.0300*%
%ADD110R,0.0611X0.0611*%
%ADD109C,0.0660*%
%ADD108C,0.0001*%
%ADD107C,0.0709*%
G54D107*X28642Y27677D03*
X40453Y21772D03*
X28642Y15866D03*
G54D108*G36*
X108806Y10150D02*Y3550D01*
X115406D01*
Y10150D01*
X108806D01*
G37*
G54D109*X112106Y16850D03*
Y26850D03*
Y36850D03*
G54D110*X87894Y14744D02*Y14350D01*
X95768Y14744D02*Y14350D01*
X87894Y24705D02*Y24311D01*
X95768Y24705D02*Y24311D01*
Y34705D02*Y34311D01*
G54D111*X74362Y34508D02*X80862D01*
X74362Y39508D02*X80862D01*
G54D110*X87894Y34705D02*Y34311D01*
G54D111*X74362Y24508D02*X80862D01*
X74362Y29508D02*X80862D01*
X48862Y39508D02*X55362D01*
X48862Y34508D02*X55362D01*
X48862Y29508D02*X55362D01*
X48862Y24508D02*X55362D01*
G54D110*X32579Y6221D02*Y5827D01*
X24705Y6221D02*Y5827D01*
M02*
