G04 start of page 2 for group 0 idx 0 *
G04 Title: wearlink, top *
G04 Creator: pcb 1.99z *
G04 CreationDate: Sun Feb 24 14:25:00 2013 UTC *
G04 For: dijkstra *
G04 Format: Gerber/RS-274X *
G04 PCB-Dimensions (mil): 1326.38 433.46 *
G04 PCB-Coordinate-Origin: lower left *
%MOIN*%
%FSLAX25Y25*%
%LNTOP*%
%ADD85C,0.0787*%
%ADD84C,0.0380*%
%ADD83C,0.0390*%
%ADD82C,0.0413*%
%ADD81C,0.0394*%
%ADD80C,0.0200*%
%ADD79C,0.0360*%
%ADD78C,0.0310*%
%ADD77R,0.0200X0.0200*%
%ADD76R,0.0551X0.0551*%
%ADD75C,0.0600*%
%ADD74C,0.0866*%
%ADD73C,0.0171*%
%ADD72C,0.0100*%
%ADD71C,0.0250*%
%ADD70C,0.0001*%
G54D70*G36*
X85295Y531D02*X295D01*
Y9031D01*
X20952D01*
X20949Y8976D01*
X20958Y2914D01*
X20995Y2761D01*
X21055Y2616D01*
X21138Y2482D01*
X21240Y2362D01*
X21360Y2260D01*
X21494Y2177D01*
X21639Y2117D01*
X21792Y2080D01*
X21949Y2071D01*
X27617Y2080D01*
X27770Y2117D01*
X27916Y2177D01*
X28050Y2260D01*
X28170Y2362D01*
X28272Y2482D01*
X28354Y2616D01*
X28414Y2761D01*
X28451Y2914D01*
X28460Y3071D01*
X28451Y9031D01*
X28826D01*
X28823Y8976D01*
X28832Y2914D01*
X28869Y2761D01*
X28929Y2616D01*
X29012Y2482D01*
X29114Y2362D01*
X29234Y2260D01*
X29368Y2177D01*
X29513Y2117D01*
X29666Y2080D01*
X29823Y2071D01*
X35491Y2080D01*
X35644Y2117D01*
X35790Y2177D01*
X35924Y2260D01*
X36044Y2362D01*
X36146Y2482D01*
X36228Y2616D01*
X36288Y2761D01*
X36325Y2914D01*
X36334Y3071D01*
X36328Y7148D01*
X38212Y9031D01*
X46472D01*
Y7947D01*
X46468Y7888D01*
X46486Y7652D01*
X46541Y7423D01*
X46632Y7205D01*
X46755Y7003D01*
X46909Y6824D01*
X46953Y6786D01*
X49935Y3804D01*
X49973Y3759D01*
X50153Y3606D01*
X50354Y3482D01*
X50572Y3392D01*
X50802Y3337D01*
X51037Y3318D01*
X51096Y3323D01*
X55729D01*
X55787Y3318D01*
X56022Y3337D01*
X56023Y3337D01*
X56252Y3392D01*
X56470Y3482D01*
X56672Y3606D01*
X56851Y3759D01*
X56890Y3804D01*
X59213Y6127D01*
X59416Y6079D01*
X59862Y6044D01*
X60309Y6079D01*
X60744Y6183D01*
X61158Y6355D01*
X61540Y6589D01*
X61880Y6880D01*
X62171Y7220D01*
X62405Y7602D01*
X62417Y7631D01*
X62633Y7278D01*
X62914Y6949D01*
X63196Y6708D01*
X62876Y6435D01*
X62590Y6100D01*
X62360Y5724D01*
X62191Y5317D01*
X62088Y4888D01*
X62054Y4449D01*
X62088Y4009D01*
X62191Y3581D01*
X62360Y3174D01*
X62590Y2798D01*
X62876Y2463D01*
X63211Y2177D01*
X63587Y1946D01*
X63994Y1778D01*
X64423Y1675D01*
X64862Y1640D01*
X65302Y1675D01*
X65730Y1778D01*
X66137Y1946D01*
X66513Y2177D01*
X66848Y2463D01*
X67134Y2798D01*
X67365Y3174D01*
X67533Y3581D01*
X67636Y4009D01*
X67662Y4449D01*
X67636Y4888D01*
X67533Y5317D01*
X67365Y5724D01*
X67134Y6100D01*
X66848Y6435D01*
X66528Y6708D01*
X66811Y6949D01*
X67091Y7278D01*
X67307Y7631D01*
X67319Y7602D01*
X67553Y7220D01*
X67844Y6880D01*
X68185Y6589D01*
X68566Y6355D01*
X68980Y6183D01*
X69416Y6079D01*
X69862Y6044D01*
X70309Y6079D01*
X70744Y6183D01*
X71158Y6355D01*
X71540Y6589D01*
X71880Y6880D01*
X71939Y6948D01*
X71940Y6935D01*
X72048Y6483D01*
X72226Y6054D01*
X72468Y5658D01*
X72770Y5305D01*
X73123Y5004D01*
X73519Y4761D01*
X73948Y4583D01*
X74399Y4475D01*
X74862Y4439D01*
X75325Y4475D01*
X75777Y4583D01*
X76206Y4761D01*
X76602Y5004D01*
X76955Y5305D01*
X77256Y5658D01*
X77499Y6054D01*
X77676Y6483D01*
X77785Y6935D01*
X77812Y7398D01*
X77785Y7861D01*
X77676Y8312D01*
X77499Y8741D01*
X77321Y9031D01*
X85295D01*
Y531D01*
G37*
G36*
X46795Y22531D02*X47646D01*
X47705Y22517D01*
X47862Y22508D01*
X54862Y22515D01*
Y14357D01*
X54399Y14320D01*
X53948Y14212D01*
X53519Y14034D01*
X53123Y13792D01*
X52770Y13490D01*
X52468Y13137D01*
X52226Y12741D01*
X52048Y12312D01*
X51940Y11861D01*
X51903Y11398D01*
X50772D01*
X50746Y11837D01*
X50644Y12266D01*
X50475Y12673D01*
X50245Y13049D01*
X49958Y13384D01*
X49623Y13670D01*
X49248Y13900D01*
X48840Y14069D01*
X48412Y14172D01*
X47972Y14206D01*
X47533Y14172D01*
X47105Y14069D01*
X46795Y13941D01*
Y22531D01*
G37*
G36*
X27295Y43031D02*X63295D01*
Y41031D01*
X57214D01*
X57174Y41097D01*
X57071Y41217D01*
X56952Y41319D01*
X56818Y41402D01*
X56672Y41462D01*
X56519Y41499D01*
X56362Y41508D01*
X47705Y41499D01*
X47552Y41462D01*
X47407Y41402D01*
X47273Y41319D01*
X47153Y41217D01*
X47051Y41097D01*
X47010Y41031D01*
X27295D01*
Y43031D01*
G37*
G36*
X33904Y9974D02*X29666Y9967D01*
X29513Y9930D01*
X29368Y9870D01*
X29234Y9788D01*
X29114Y9685D01*
X29012Y9566D01*
X28929Y9432D01*
X28869Y9286D01*
X28832Y9133D01*
X28823Y8976D01*
X28832Y2914D01*
X28869Y2761D01*
X28929Y2616D01*
X29012Y2482D01*
X29114Y2362D01*
X29234Y2260D01*
X29368Y2177D01*
X29513Y2117D01*
X29666Y2080D01*
X29823Y2071D01*
X35491Y2080D01*
X35644Y2117D01*
X35790Y2177D01*
X35924Y2260D01*
X36044Y2362D01*
X36146Y2482D01*
X36228Y2616D01*
X36288Y2761D01*
X36325Y2914D01*
X36334Y3071D01*
X36328Y7148D01*
X41714Y12534D01*
X41769Y12581D01*
X41959Y12803D01*
X42112Y13052D01*
X42224Y13322D01*
X42292Y13606D01*
X42315Y13898D01*
X42309Y13970D01*
Y16575D01*
X42963Y16845D01*
X43703Y17299D01*
X44362Y17862D01*
X44926Y18522D01*
X45379Y19262D01*
X45711Y20063D01*
X45913Y20907D01*
X45965Y21772D01*
X45913Y22637D01*
X45711Y23480D01*
X45383Y24273D01*
X46902Y25793D01*
X46871Y25665D01*
X46862Y25508D01*
X46871Y23351D01*
X46908Y23198D01*
X46968Y23052D01*
X47051Y22918D01*
X47153Y22799D01*
X47273Y22696D01*
X47407Y22614D01*
X47552Y22554D01*
X47705Y22517D01*
X47862Y22508D01*
X49295Y22509D01*
Y13871D01*
X49248Y13900D01*
X48840Y14069D01*
X48412Y14172D01*
X47972Y14206D01*
X47533Y14172D01*
X47105Y14069D01*
X46697Y13900D01*
X46322Y13670D01*
X45986Y13384D01*
X45700Y13049D01*
X45470Y12673D01*
X45301Y12266D01*
X45198Y11837D01*
X45164Y11398D01*
X45198Y10958D01*
X45301Y10530D01*
X45470Y10123D01*
X45700Y9747D01*
X45986Y9412D01*
X46322Y9125D01*
X46472Y9033D01*
Y7947D01*
X46468Y7888D01*
X46486Y7652D01*
X46541Y7423D01*
X46632Y7205D01*
X46755Y7003D01*
X46909Y6824D01*
X46953Y6786D01*
X49295Y4444D01*
Y531D01*
X24705D01*
Y2076D01*
X27617Y2080D01*
X27770Y2117D01*
X27916Y2177D01*
X28050Y2260D01*
X28170Y2362D01*
X28272Y2482D01*
X28354Y2616D01*
X28414Y2761D01*
X28451Y2914D01*
X28460Y3071D01*
X28451Y9133D01*
X28414Y9286D01*
X28354Y9432D01*
X28272Y9566D01*
X28170Y9685D01*
X28050Y9788D01*
X27916Y9870D01*
X27770Y9930D01*
X27617Y9967D01*
X27460Y9976D01*
X24705Y9972D01*
Y11989D01*
X24732Y11957D01*
X25392Y11393D01*
X26132Y10940D01*
X26933Y10608D01*
X27777Y10405D01*
X28642Y10337D01*
X29507Y10405D01*
X30350Y10608D01*
X31152Y10940D01*
X31891Y11393D01*
X32551Y11957D01*
X33115Y12616D01*
X33568Y13356D01*
X33900Y14158D01*
X34102Y15001D01*
X34154Y15866D01*
X34102Y16731D01*
X33900Y17575D01*
X33568Y18376D01*
X33115Y19116D01*
X32551Y19776D01*
X31891Y20339D01*
X31152Y20792D01*
X30350Y21124D01*
X29507Y21327D01*
X28642Y21395D01*
X27777Y21327D01*
X26933Y21124D01*
X26132Y20792D01*
X25392Y20339D01*
X24732Y19776D01*
X24705Y19743D01*
Y23800D01*
X24732Y23768D01*
X25392Y23204D01*
X26132Y22751D01*
X26933Y22419D01*
X27777Y22216D01*
X28642Y22148D01*
X29507Y22216D01*
X30350Y22419D01*
X31152Y22751D01*
X31891Y23204D01*
X32551Y23768D01*
X33115Y24427D01*
X33568Y25167D01*
X33900Y25969D01*
X34102Y26812D01*
X34154Y27677D01*
X34102Y28542D01*
X33900Y29386D01*
X33568Y30187D01*
X33115Y30927D01*
X32551Y31587D01*
X31891Y32150D01*
X31152Y32603D01*
X30350Y32935D01*
X29507Y33138D01*
X28642Y33206D01*
X27777Y33138D01*
X26933Y32935D01*
X26132Y32603D01*
X25392Y32150D01*
X24732Y31587D01*
X24705Y31554D01*
Y43031D01*
X49295D01*
Y41500D01*
X47705Y41499D01*
X47552Y41462D01*
X47407Y41402D01*
X47273Y41319D01*
X47153Y41217D01*
X47051Y41097D01*
X46968Y40963D01*
X46908Y40818D01*
X46871Y40665D01*
X46862Y40508D01*
X46863Y40239D01*
X44110Y37486D01*
X43740Y37574D01*
X43254Y37613D01*
X42768Y37574D01*
X42294Y37461D01*
X41844Y37274D01*
X41429Y37020D01*
X41058Y36703D01*
X40742Y36333D01*
X40488Y35917D01*
X40301Y35467D01*
X40187Y34994D01*
X40149Y34508D01*
X40187Y34022D01*
X40301Y33548D01*
X40488Y33098D01*
X40742Y32683D01*
X41058Y32312D01*
X41429Y31996D01*
X41844Y31741D01*
X42294Y31555D01*
X42768Y31441D01*
X43254Y31403D01*
X43740Y31441D01*
X44213Y31555D01*
X44663Y31741D01*
X45079Y31996D01*
X45449Y32312D01*
X45766Y32683D01*
X46020Y33098D01*
X46207Y33548D01*
X46321Y34022D01*
X46349Y34508D01*
X46321Y34994D01*
X46232Y35364D01*
X46888Y36021D01*
X46880Y36008D01*
X46814Y35848D01*
X46774Y35680D01*
X46764Y35508D01*
X46774Y33336D01*
X46814Y33167D01*
X46880Y33008D01*
X46971Y32860D01*
X47083Y32729D01*
X47215Y32616D01*
X47362Y32526D01*
X47522Y32460D01*
X47690Y32420D01*
X47862Y32409D01*
X49295Y32411D01*
Y31793D01*
X47659Y31791D01*
X47461Y31744D01*
X47272Y31666D01*
X47099Y31559D01*
X46943Y31427D01*
X46811Y31272D01*
X46705Y31098D01*
X46627Y30909D01*
X46582Y30723D01*
X42676Y26817D01*
X42161Y27030D01*
X41318Y27232D01*
X40453Y27300D01*
X39588Y27232D01*
X38744Y27030D01*
X37943Y26698D01*
X37203Y26245D01*
X36543Y25681D01*
X35980Y25021D01*
X35527Y24282D01*
X35195Y23480D01*
X34992Y22637D01*
X34924Y21772D01*
X34992Y20907D01*
X35195Y20063D01*
X35527Y19262D01*
X35980Y18522D01*
X36543Y17862D01*
X37203Y17299D01*
X37943Y16845D01*
X38596Y16575D01*
Y14667D01*
X33904Y9974D01*
G37*
G36*
X24705Y531D02*X295D01*
Y43031D01*
X24705D01*
Y31554D01*
X24169Y30927D01*
X23716Y30187D01*
X23384Y29386D01*
X23181Y28542D01*
X23113Y27677D01*
X23181Y26812D01*
X23384Y25969D01*
X23716Y25167D01*
X24169Y24427D01*
X24705Y23800D01*
Y19743D01*
X24169Y19116D01*
X23716Y18376D01*
X23384Y17575D01*
X23181Y16731D01*
X23113Y15866D01*
X23181Y15001D01*
X23384Y14158D01*
X23716Y13356D01*
X24169Y12616D01*
X24705Y11989D01*
Y9972D01*
X21792Y9967D01*
X21639Y9930D01*
X21494Y9870D01*
X21360Y9788D01*
X21240Y9685D01*
X21138Y9566D01*
X21055Y9432D01*
X20995Y9286D01*
X20958Y9133D01*
X20949Y8976D01*
X20958Y2914D01*
X20995Y2761D01*
X21055Y2616D01*
X21138Y2482D01*
X21240Y2362D01*
X21360Y2260D01*
X21494Y2177D01*
X21639Y2117D01*
X21792Y2080D01*
X21949Y2071D01*
X24705Y2076D01*
Y531D01*
G37*
G36*
X60039Y35276D02*Y42953D01*
X70079D01*
Y35276D01*
X60039D01*
G37*
G36*
X115856Y43031D02*X118406D01*
Y512D01*
X115856D01*
Y4598D01*
X115974Y4607D01*
X116089Y4635D01*
X116198Y4680D01*
X116298Y4742D01*
X116388Y4818D01*
X116465Y4908D01*
X116527Y5009D01*
X116572Y5118D01*
X116599Y5233D01*
X116606Y5350D01*
Y8350D01*
X116599Y8468D01*
X116572Y8583D01*
X116527Y8692D01*
X116465Y8793D01*
X116388Y8882D01*
X116298Y8959D01*
X116198Y9021D01*
X116089Y9066D01*
X115974Y9093D01*
X115856Y9103D01*
Y14357D01*
X116128Y14801D01*
X116399Y15456D01*
X116565Y16144D01*
X116606Y16850D01*
X116565Y17557D01*
X116399Y18245D01*
X116128Y18900D01*
X115856Y19343D01*
Y24357D01*
X116128Y24801D01*
X116399Y25456D01*
X116565Y26144D01*
X116606Y26850D01*
X116565Y27557D01*
X116399Y28245D01*
X116128Y28900D01*
X115856Y29343D01*
Y34357D01*
X116128Y34801D01*
X116399Y35456D01*
X116565Y36144D01*
X116606Y36850D01*
X116565Y37557D01*
X116399Y38245D01*
X116128Y38900D01*
X115856Y39343D01*
Y43031D01*
G37*
G36*
Y29343D02*X115758Y29504D01*
X115298Y30042D01*
X114759Y30502D01*
X114156Y30872D01*
X113501Y31143D01*
X112812Y31309D01*
X112106Y31364D01*
Y32337D01*
X112812Y32392D01*
X113501Y32557D01*
X114156Y32828D01*
X114759Y33199D01*
X115298Y33659D01*
X115758Y34197D01*
X115856Y34357D01*
Y29343D01*
G37*
G36*
Y19343D02*X115758Y19504D01*
X115298Y20042D01*
X114759Y20502D01*
X114156Y20872D01*
X113501Y21143D01*
X112812Y21309D01*
X112106Y21364D01*
Y22337D01*
X112812Y22392D01*
X113501Y22557D01*
X114156Y22828D01*
X114759Y23199D01*
X115298Y23659D01*
X115758Y24197D01*
X115856Y24357D01*
Y19343D01*
G37*
G36*
Y512D02*X112106D01*
Y2350D01*
X113606D01*
X113724Y2357D01*
X113839Y2385D01*
X113948Y2430D01*
X114048Y2492D01*
X114138Y2568D01*
X114215Y2658D01*
X114277Y2759D01*
X114322Y2868D01*
X114349Y2983D01*
X114359Y3100D01*
X114349Y3218D01*
X114322Y3333D01*
X114277Y3442D01*
X114215Y3543D01*
X114138Y3632D01*
X114048Y3709D01*
X113948Y3771D01*
X113839Y3816D01*
X113724Y3843D01*
X113606Y3850D01*
X112106D01*
Y9850D01*
X113606D01*
X113724Y9857D01*
X113839Y9885D01*
X113948Y9930D01*
X114048Y9992D01*
X114138Y10068D01*
X114215Y10158D01*
X114277Y10259D01*
X114322Y10368D01*
X114349Y10483D01*
X114359Y10600D01*
X114349Y10718D01*
X114322Y10833D01*
X114277Y10942D01*
X114215Y11043D01*
X114138Y11132D01*
X114048Y11209D01*
X113948Y11271D01*
X113839Y11316D01*
X113724Y11343D01*
X113606Y11350D01*
X112106D01*
Y12337D01*
X112812Y12392D01*
X113501Y12557D01*
X114156Y12828D01*
X114759Y13199D01*
X115298Y13659D01*
X115758Y14197D01*
X115856Y14357D01*
Y9103D01*
X115739Y9093D01*
X115624Y9066D01*
X115515Y9021D01*
X115414Y8959D01*
X115324Y8882D01*
X115248Y8793D01*
X115186Y8692D01*
X115141Y8583D01*
X115113Y8468D01*
X115106Y8350D01*
Y5350D01*
X115113Y5233D01*
X115141Y5118D01*
X115186Y5009D01*
X115248Y4908D01*
X115324Y4818D01*
X115414Y4742D01*
X115515Y4680D01*
X115624Y4635D01*
X115739Y4607D01*
X115856Y4598D01*
Y512D01*
G37*
G36*
X112106Y43031D02*X115856D01*
Y39343D01*
X115758Y39504D01*
X115298Y40042D01*
X114759Y40502D01*
X114156Y40872D01*
X113501Y41143D01*
X112812Y41309D01*
X112106Y41364D01*
Y43031D01*
G37*
G36*
Y21364D02*X112106D01*
X111400Y21309D01*
X110711Y21143D01*
X110518Y21063D01*
X105813Y25769D01*
X105765Y25825D01*
X105543Y26014D01*
X105294Y26167D01*
X105024Y26279D01*
X104740Y26347D01*
X104449Y26370D01*
X104376Y26364D01*
X104309D01*
Y32022D01*
X107893Y28438D01*
X107813Y28245D01*
X107648Y27557D01*
X107592Y26850D01*
X107648Y26144D01*
X107813Y25456D01*
X108084Y24801D01*
X108454Y24197D01*
X108915Y23659D01*
X109453Y23199D01*
X110057Y22828D01*
X110711Y22557D01*
X111400Y22392D01*
X112106Y22337D01*
X112106D01*
Y21364D01*
G37*
G36*
Y512D02*X108356D01*
Y4598D01*
X108474Y4607D01*
X108589Y4635D01*
X108698Y4680D01*
X108798Y4742D01*
X108888Y4818D01*
X108965Y4908D01*
X109027Y5009D01*
X109072Y5118D01*
X109099Y5233D01*
X109106Y5350D01*
Y8350D01*
X109099Y8468D01*
X109072Y8583D01*
X109027Y8692D01*
X108965Y8793D01*
X108888Y8882D01*
X108798Y8959D01*
X108698Y9021D01*
X108589Y9066D01*
X108474Y9093D01*
X108356Y9103D01*
Y14357D01*
X108454Y14197D01*
X108915Y13659D01*
X109453Y13199D01*
X110057Y12828D01*
X110711Y12557D01*
X111400Y12392D01*
X112106Y12337D01*
X112106D01*
Y11350D01*
X110606D01*
X110489Y11343D01*
X110374Y11316D01*
X110265Y11271D01*
X110164Y11209D01*
X110074Y11132D01*
X109998Y11043D01*
X109936Y10942D01*
X109891Y10833D01*
X109863Y10718D01*
X109854Y10600D01*
X109863Y10483D01*
X109891Y10368D01*
X109936Y10259D01*
X109998Y10158D01*
X110074Y10068D01*
X110164Y9992D01*
X110265Y9930D01*
X110374Y9885D01*
X110489Y9857D01*
X110606Y9850D01*
X112106D01*
Y3850D01*
X110606D01*
X110489Y3843D01*
X110374Y3816D01*
X110265Y3771D01*
X110164Y3709D01*
X110074Y3632D01*
X109998Y3543D01*
X109936Y3442D01*
X109891Y3333D01*
X109863Y3218D01*
X109854Y3100D01*
X109863Y2983D01*
X109891Y2868D01*
X109936Y2759D01*
X109998Y2658D01*
X110074Y2568D01*
X110164Y2492D01*
X110265Y2430D01*
X110374Y2385D01*
X110489Y2357D01*
X110606Y2350D01*
X112106D01*
Y512D01*
G37*
G36*
X108356D02*X104309D01*
Y22022D01*
X107893Y18438D01*
X107813Y18245D01*
X107648Y17557D01*
X107592Y16850D01*
X107648Y16144D01*
X107813Y15456D01*
X108084Y14801D01*
X108356Y14357D01*
Y9103D01*
X108239Y9093D01*
X108124Y9066D01*
X108015Y9021D01*
X107914Y8959D01*
X107824Y8882D01*
X107748Y8793D01*
X107686Y8692D01*
X107641Y8583D01*
X107613Y8468D01*
X107606Y8350D01*
Y5350D01*
X107613Y5233D01*
X107641Y5118D01*
X107686Y5009D01*
X107748Y4908D01*
X107824Y4818D01*
X107914Y4742D01*
X108015Y4680D01*
X108124Y4635D01*
X108239Y4607D01*
X108356Y4598D01*
Y512D01*
G37*
G36*
X104309Y43031D02*X112106D01*
Y41364D01*
X112106D01*
X111400Y41309D01*
X110711Y41143D01*
X110057Y40872D01*
X109453Y40502D01*
X108915Y40042D01*
X108454Y39504D01*
X108084Y38900D01*
X107813Y38245D01*
X107648Y37557D01*
X107592Y36850D01*
X107648Y36144D01*
X107813Y35456D01*
X108084Y34801D01*
X108454Y34197D01*
X108915Y33659D01*
X109453Y33199D01*
X110057Y32828D01*
X110711Y32557D01*
X111400Y32392D01*
X112106Y32337D01*
X112106D01*
Y31364D01*
X112106D01*
X111400Y31309D01*
X110711Y31143D01*
X110518Y31063D01*
X105813Y35769D01*
X105765Y35825D01*
X105543Y36014D01*
X105294Y36167D01*
X105024Y36279D01*
X104740Y36347D01*
X104449Y36370D01*
X104376Y36364D01*
X104309D01*
Y43031D01*
G37*
G36*
X90649Y28460D02*X87894Y28456D01*
Y30560D01*
X90806Y30565D01*
X90959Y30601D01*
X91105Y30662D01*
X91239Y30744D01*
X91358Y30846D01*
X91461Y30966D01*
X91543Y31100D01*
X91603Y31245D01*
X91640Y31398D01*
X91649Y31555D01*
X91640Y37617D01*
X91603Y37770D01*
X91543Y37916D01*
X91461Y38050D01*
X91358Y38170D01*
X91239Y38272D01*
X91105Y38354D01*
X90959Y38414D01*
X90806Y38451D01*
X90649Y38460D01*
X87894Y38456D01*
Y43031D01*
X104309D01*
Y36364D01*
X99516D01*
X99514Y37617D01*
X99477Y37770D01*
X99417Y37916D01*
X99335Y38050D01*
X99232Y38170D01*
X99113Y38272D01*
X98979Y38354D01*
X98833Y38414D01*
X98680Y38451D01*
X98523Y38460D01*
X92855Y38451D01*
X92702Y38414D01*
X92557Y38354D01*
X92423Y38272D01*
X92303Y38170D01*
X92201Y38050D01*
X92118Y37916D01*
X92058Y37770D01*
X92021Y37617D01*
X92012Y37460D01*
X92021Y31398D01*
X92058Y31245D01*
X92118Y31100D01*
X92201Y30966D01*
X92303Y30846D01*
X92423Y30744D01*
X92557Y30662D01*
X92702Y30601D01*
X92855Y30565D01*
X93012Y30555D01*
X98680Y30565D01*
X98833Y30601D01*
X98979Y30662D01*
X99113Y30744D01*
X99232Y30846D01*
X99335Y30966D01*
X99417Y31100D01*
X99477Y31245D01*
X99514Y31398D01*
X99523Y31555D01*
X99522Y32652D01*
X103680D01*
X104309Y32022D01*
Y26364D01*
X99516D01*
X99514Y27617D01*
X99477Y27770D01*
X99417Y27916D01*
X99335Y28050D01*
X99232Y28170D01*
X99113Y28272D01*
X98979Y28354D01*
X98833Y28414D01*
X98680Y28451D01*
X98523Y28460D01*
X92855Y28451D01*
X92702Y28414D01*
X92557Y28354D01*
X92423Y28272D01*
X92303Y28170D01*
X92201Y28050D01*
X92118Y27916D01*
X92058Y27770D01*
X92021Y27617D01*
X92012Y27460D01*
X92021Y21398D01*
X92058Y21245D01*
X92118Y21100D01*
X92201Y20966D01*
X92303Y20846D01*
X92423Y20744D01*
X92557Y20662D01*
X92702Y20601D01*
X92855Y20565D01*
X93012Y20555D01*
X93911Y20557D01*
Y18492D01*
X92855Y18490D01*
X92702Y18454D01*
X92557Y18394D01*
X92423Y18311D01*
X92303Y18209D01*
X92201Y18089D01*
X92118Y17955D01*
X92058Y17810D01*
X92021Y17657D01*
X92012Y17500D01*
X92021Y11438D01*
X92058Y11285D01*
X92118Y11139D01*
X92201Y11005D01*
X92303Y10885D01*
X92423Y10783D01*
X92557Y10701D01*
X92702Y10641D01*
X92855Y10604D01*
X93012Y10595D01*
X98680Y10604D01*
X98833Y10641D01*
X98979Y10701D01*
X99113Y10783D01*
X99232Y10885D01*
X99335Y11005D01*
X99417Y11139D01*
X99477Y11285D01*
X99514Y11438D01*
X99523Y11595D01*
X99514Y17657D01*
X99477Y17810D01*
X99417Y17955D01*
X99335Y18089D01*
X99232Y18209D01*
X99113Y18311D01*
X98979Y18394D01*
X98833Y18454D01*
X98680Y18490D01*
X98523Y18500D01*
X97624Y18498D01*
Y20563D01*
X98680Y20565D01*
X98833Y20601D01*
X98979Y20662D01*
X99113Y20744D01*
X99232Y20846D01*
X99335Y20966D01*
X99417Y21100D01*
X99477Y21245D01*
X99514Y21398D01*
X99523Y21555D01*
X99522Y22652D01*
X103680D01*
X104309Y22022D01*
Y512D01*
X87894D01*
Y10599D01*
X90806Y10604D01*
X90959Y10641D01*
X91105Y10701D01*
X91239Y10783D01*
X91358Y10885D01*
X91461Y11005D01*
X91543Y11139D01*
X91603Y11285D01*
X91640Y11438D01*
X91649Y11595D01*
X91640Y17657D01*
X91603Y17810D01*
X91543Y17955D01*
X91461Y18089D01*
X91358Y18209D01*
X91239Y18311D01*
X91105Y18394D01*
X90959Y18454D01*
X90806Y18490D01*
X90649Y18500D01*
X87894Y18495D01*
Y20560D01*
X90806Y20565D01*
X90959Y20601D01*
X91105Y20662D01*
X91239Y20744D01*
X91358Y20846D01*
X91461Y20966D01*
X91543Y21100D01*
X91603Y21245D01*
X91640Y21398D01*
X91649Y21555D01*
X91640Y27617D01*
X91603Y27770D01*
X91543Y27916D01*
X91461Y28050D01*
X91358Y28170D01*
X91239Y28272D01*
X91105Y28354D01*
X90959Y28414D01*
X90806Y28451D01*
X90649Y28460D01*
G37*
G36*
X87894Y512D02*X80295D01*
Y22515D01*
X82019Y22517D01*
X82172Y22554D01*
X82318Y22614D01*
X82379Y22652D01*
X84146D01*
X84147Y21398D01*
X84184Y21245D01*
X84244Y21100D01*
X84327Y20966D01*
X84429Y20846D01*
X84549Y20744D01*
X84683Y20662D01*
X84828Y20601D01*
X84981Y20565D01*
X85138Y20555D01*
X87894Y20560D01*
Y18495D01*
X84981Y18490D01*
X84828Y18454D01*
X84683Y18394D01*
X84549Y18311D01*
X84429Y18209D01*
X84327Y18089D01*
X84244Y17955D01*
X84184Y17810D01*
X84147Y17657D01*
X84138Y17500D01*
X84147Y11438D01*
X84184Y11285D01*
X84244Y11139D01*
X84327Y11005D01*
X84429Y10885D01*
X84549Y10783D01*
X84683Y10701D01*
X84828Y10641D01*
X84981Y10604D01*
X85138Y10595D01*
X87894Y10599D01*
Y512D01*
G37*
G36*
Y38456D02*X84981Y38451D01*
X84828Y38414D01*
X84683Y38354D01*
X84549Y38272D01*
X84429Y38170D01*
X84327Y38050D01*
X84244Y37916D01*
X84184Y37770D01*
X84147Y37617D01*
X84138Y37460D01*
X84140Y36364D01*
X82551D01*
X82510Y36399D01*
X82362Y36490D01*
X82203Y36556D01*
X82035Y36596D01*
X81862Y36606D01*
X80295Y36604D01*
Y37515D01*
X82019Y37517D01*
X82172Y37554D01*
X82318Y37614D01*
X82452Y37696D01*
X82571Y37799D01*
X82674Y37918D01*
X82756Y38052D01*
X82816Y38198D01*
X82853Y38351D01*
X82862Y38508D01*
X82853Y40665D01*
X82816Y40818D01*
X82756Y40963D01*
X82674Y41097D01*
X82571Y41217D01*
X82452Y41319D01*
X82318Y41402D01*
X82172Y41462D01*
X82019Y41499D01*
X81862Y41508D01*
X80295Y41506D01*
Y43031D01*
X87894D01*
Y38456D01*
G37*
G36*
Y28456D02*X84981Y28451D01*
X84828Y28414D01*
X84683Y28354D01*
X84549Y28272D01*
X84429Y28170D01*
X84327Y28050D01*
X84244Y27916D01*
X84184Y27770D01*
X84147Y27617D01*
X84138Y27460D01*
X84140Y26364D01*
X82379D01*
X82318Y26402D01*
X82172Y26462D01*
X82019Y26499D01*
X81862Y26508D01*
X80295Y26506D01*
Y27515D01*
X82019Y27517D01*
X82172Y27554D01*
X82318Y27614D01*
X82452Y27696D01*
X82571Y27799D01*
X82674Y27918D01*
X82756Y28052D01*
X82816Y28198D01*
X82853Y28351D01*
X82862Y28508D01*
X82853Y30665D01*
X82816Y30818D01*
X82756Y30963D01*
X82674Y31097D01*
X82571Y31217D01*
X82452Y31319D01*
X82318Y31402D01*
X82172Y31462D01*
X82019Y31499D01*
X81862Y31508D01*
X80295Y31506D01*
Y32418D01*
X82035Y32420D01*
X82203Y32460D01*
X82362Y32526D01*
X82510Y32616D01*
X82551Y32652D01*
X84146D01*
X84147Y31398D01*
X84184Y31245D01*
X84244Y31100D01*
X84327Y30966D01*
X84429Y30846D01*
X84549Y30744D01*
X84683Y30662D01*
X84828Y30601D01*
X84981Y30565D01*
X85138Y30555D01*
X87894Y30560D01*
Y28456D01*
G37*
G36*
X88795Y43031D02*Y41031D01*
X82714D01*
X82674Y41097D01*
X82571Y41217D01*
X82452Y41319D01*
X82318Y41402D01*
X82172Y41462D01*
X82019Y41499D01*
X81862Y41508D01*
X73205Y41499D01*
X73052Y41462D01*
X72907Y41402D01*
X72846Y41364D01*
X66850D01*
X66559Y41347D01*
X66275Y41279D01*
X66005Y41167D01*
X65784Y41031D01*
X62795D01*
Y43031D01*
X88795D01*
G37*
G36*
X82079Y22531D02*X84146D01*
X84147Y21398D01*
X84184Y21245D01*
X84244Y21100D01*
X84327Y20966D01*
X84429Y20846D01*
X84549Y20744D01*
X84683Y20662D01*
X84828Y20601D01*
X84981Y20565D01*
X85138Y20555D01*
X88295Y20561D01*
Y18496D01*
X84981Y18490D01*
X84828Y18454D01*
X84683Y18394D01*
X84549Y18311D01*
X84429Y18209D01*
X84327Y18089D01*
X84244Y17955D01*
X84184Y17810D01*
X84147Y17657D01*
X84138Y17500D01*
X84147Y11438D01*
X84184Y11285D01*
X84244Y11139D01*
X84327Y11005D01*
X84429Y10885D01*
X84549Y10783D01*
X84683Y10701D01*
X84828Y10641D01*
X84981Y10604D01*
X85138Y10595D01*
X88295Y10600D01*
Y531D01*
X74795D01*
Y4444D01*
X74862Y4439D01*
X75325Y4475D01*
X75777Y4583D01*
X76206Y4761D01*
X76602Y5004D01*
X76955Y5305D01*
X77256Y5658D01*
X77499Y6054D01*
X77676Y6483D01*
X77785Y6935D01*
X77812Y7398D01*
X77785Y7861D01*
X77676Y8312D01*
X77499Y8741D01*
X77256Y9137D01*
X76955Y9490D01*
X76602Y9792D01*
X76206Y10034D01*
X75777Y10212D01*
X75325Y10320D01*
X74862Y10357D01*
X74795Y10351D01*
Y12444D01*
X74862Y12439D01*
X75325Y12475D01*
X75777Y12583D01*
X76206Y12761D01*
X76602Y13004D01*
X76955Y13305D01*
X77256Y13658D01*
X77499Y14054D01*
X77676Y14483D01*
X77785Y14935D01*
X77812Y15398D01*
X77785Y15861D01*
X77676Y16312D01*
X77499Y16741D01*
X77256Y17137D01*
X76955Y17490D01*
X76602Y17792D01*
X76206Y18034D01*
X75777Y18212D01*
X75325Y18320D01*
X74862Y18357D01*
X74795Y18351D01*
Y22509D01*
X82019Y22517D01*
X82079Y22531D01*
G37*
G54D71*X69862Y8898D02*X69795Y8831D01*
Y4531D01*
G54D72*X75112Y24508D02*X74843D01*
G54D73*X75112D02*X87894D01*
G54D72*X71811Y29508D02*X77612D01*
X71811Y24508D02*X75112D01*
G54D73*X87894Y18484D02*Y10610D01*
Y14547D02*X82972D01*
G54D72*X59862Y13898D02*Y22283D01*
X64862Y13898D02*Y22559D01*
X69862Y13898D02*Y22559D01*
X64862Y8898D02*Y4449D01*
Y22559D02*X71811Y29508D01*
X59862Y22283D02*X72087Y34508D01*
X69862Y22559D02*X71811Y24508D01*
G54D73*X64862Y31220D02*Y32008D01*
X58150Y24508D02*X64862Y31220D01*
X75112Y34508D02*X87894D01*
G54D72*X72087D02*X75112D01*
G54D73*X77612Y39508D02*X66850D01*
G54D71*X64862Y37520D01*
G54D72*X52112Y39508D02*X48254D01*
X43254Y34508D01*
X51037Y4823D02*X55787D01*
X59862Y8898D01*
G54D73*X95768Y14547D02*Y24508D01*
X104449D01*
X112106Y16850D01*
X95768Y34508D02*X104449D01*
X112106Y26850D01*
X54612Y29508D02*X47992D01*
X52112Y24508D02*X58150D01*
X47992Y29508D02*X40453Y21969D01*
X32579Y6024D02*X40453Y13898D01*
Y21772D01*
G54D72*X47972Y11398D02*Y7888D01*
X51037Y4823D01*
G54D73*X24705Y10157D02*Y6024D01*
X20571D01*
X24705Y6220D02*Y1693D01*
G54D74*X28642Y27677D03*
X40453Y21772D03*
X28642Y15866D03*
G54D70*G36*
X109106Y9850D02*Y3850D01*
X115106D01*
Y9850D01*
X109106D01*
G37*
G54D75*X112106Y16850D03*
Y26850D03*
Y36850D03*
G54D76*X87894Y14744D02*Y14350D01*
X95768Y14744D02*Y14350D01*
X87894Y24705D02*Y24311D01*
X95768Y24705D02*Y24311D01*
Y34705D02*Y34311D01*
G54D77*X74362Y34508D02*X80862D01*
X74362Y39508D02*X80862D01*
G54D76*X87894Y34705D02*Y34311D01*
G54D77*X74362Y24508D02*X80862D01*
X74362Y29508D02*X80862D01*
X48862Y39508D02*X55362D01*
X48862Y34508D02*X55362D01*
X48862Y29508D02*X55362D01*
X48862Y24508D02*X55362D01*
G54D78*X59862Y8898D03*
Y13898D03*
X64862Y8898D03*
Y13898D03*
X69862D03*
Y8898D03*
G54D76*X32579Y6221D02*Y5827D01*
X24705Y6221D02*Y5827D01*
G54D79*X64862Y37520D03*
Y32008D03*
Y4449D03*
X43254Y34508D03*
X47972Y11398D03*
G54D80*G54D81*G54D82*G54D83*G54D84*G54D83*G54D84*G54D83*G54D84*G54D85*G54D84*M02*
