G04 start of page 9 for group -4078 idx -4078 *
G04 Title: wearlink, bottomsilk *
G04 Creator: pcb 1.99z *
G04 CreationDate: Mon Feb 18 11:15:00 2013 UTC *
G04 For: dijkstra *
G04 Format: Gerber/RS-274X *
G04 PCB-Dimensions (mil): 1326.38 433.46 *
G04 PCB-Coordinate-Origin: lower left *
%MOIN*%
%FSLAX25Y25*%
%LNBOTTOMSILK*%
%ADD59C,0.0200*%
%ADD58C,0.0100*%
%ADD57C,0.0001*%
G54D57*G36*
X17137Y31663D02*Y31196D01*
X13474D01*
Y31663D01*
X14608Y32004D01*
X14603Y32991D01*
X13827Y35937D01*
X12720Y39670D01*
X12688D01*
X9774Y31343D01*
X9292D01*
X6595Y39654D01*
X6557D01*
X4528Y32791D01*
X4474Y31961D01*
X5526Y31663D01*
Y31196D01*
X1479D01*
Y31663D01*
X2542Y32004D01*
X3161Y33289D01*
X5895Y42204D01*
X6411D01*
X9123Y33891D01*
X9156D01*
X10588Y37944D01*
X12075Y42204D01*
X12590D01*
X14337Y36415D01*
X15341Y33328D01*
X15992Y32031D01*
X17137Y31663D01*
G37*
G36*
X20413Y31196D02*X16301D01*
Y31663D01*
X17446Y31944D01*
X17668Y33274D01*
Y39941D01*
X17430Y41228D01*
X16198Y41552D01*
Y42020D01*
X20712D01*
Y41552D01*
X19323Y41248D01*
X19063Y39957D01*
Y32709D01*
X19247Y31928D01*
X20180Y31728D01*
X21949Y32335D01*
X22697Y34293D01*
X21895Y36431D01*
X20283Y36989D01*
X19063Y36789D01*
Y37343D01*
X20300Y37657D01*
X21048Y37641D01*
X23283Y36670D01*
X24298Y34222D01*
X23229Y31874D01*
X20413Y31196D01*
G37*
G36*
X20913D02*X16252D01*
Y31663D01*
X17440Y31956D01*
X17668Y33257D01*
Y39957D01*
X17419Y41254D01*
X16100Y41569D01*
Y42020D01*
X20034D01*
X22795Y41689D01*
X24976Y40635D01*
X26474Y38796D01*
X27027Y36193D01*
X26631Y34109D01*
X25611Y32611D01*
X23669Y31526D01*
X20913Y31196D01*
X20598Y31743D01*
X23430Y32428D01*
X24911Y34072D01*
X25394Y36426D01*
X25117Y38330D01*
X24282Y39920D01*
X22860Y41015D01*
X20847Y41422D01*
X19507Y41102D01*
X19084Y39839D01*
Y32909D01*
X19296Y31961D01*
X20598Y31743D01*
X20913Y31196D01*
G37*
G54D58*X295Y512D02*Y43071D01*
X118386D02*X132146D01*
X295Y512D02*X132146D01*
Y43071D01*
X295D02*X118406D01*
X88931Y36090D02*X89311Y35710D01*
X90451D01*
X90831Y36090D01*
Y36850D01*
X88931Y38750D02*X90831Y36850D01*
X88931Y38750D02*X90831D01*
X91743Y38370D02*X92123Y38750D01*
X91743Y36090D02*Y38370D01*
Y36090D02*X92123Y35710D01*
X92883D01*
X93263Y36090D01*
Y38370D01*
X92883Y38750D02*X93263Y38370D01*
X92123Y38750D02*X92883D01*
X91743Y37990D02*X93263Y36470D01*
X94176Y36318D02*X94784Y35710D01*
Y38750D01*
X94176D02*X95316D01*
X96228Y36090D02*X96608Y35710D01*
X97368D01*
X97748Y36090D01*
X97368Y38750D02*X97748Y38370D01*
X96608Y38750D02*X97368D01*
X96228Y38370D02*X96608Y38750D01*
Y37078D02*X97368D01*
X97748Y36090D02*Y36698D01*
Y37458D02*Y38370D01*
Y37458D02*X97368Y37078D01*
X97748Y36698D02*X97368Y37078D01*
X98660Y37230D02*X100180D01*
X101092Y38370D02*X101472Y38750D01*
X101092Y36090D02*Y38370D01*
Y36090D02*X101472Y35710D01*
X102232D01*
X102612Y36090D01*
Y38370D01*
X102232Y38750D02*X102612Y38370D01*
X101472Y38750D02*X102232D01*
X101092Y37990D02*X102612Y36470D01*
X103524Y36090D02*X103904Y35710D01*
X105044D01*
X105424Y36090D01*
Y36850D01*
X103524Y38750D02*X105424Y36850D01*
X103524Y38750D02*X105424D01*
X90550Y4966D02*X92070D01*
X92450Y5346D01*
Y6106D01*
X92070Y6486D02*X92450Y6106D01*
X90930Y6486D02*X92070D01*
X90930Y4966D02*Y8006D01*
X91538Y6486D02*X92450Y8006D01*
X93742D02*X94882D01*
X93362Y7626D02*X93742Y8006D01*
X93362Y6866D02*Y7626D01*
Y6866D02*X93742Y6486D01*
X94502D01*
X94882Y6866D01*
X93362Y7246D02*X94882D01*
Y6866D02*Y7246D01*
X95794Y6486D02*X96554Y8006D01*
X97314Y6486D02*X96554Y8006D01*
X98226D02*X98606D01*
X100886Y5726D02*Y8006D01*
Y5726D02*X101418Y4966D01*
X102254D01*
X102786Y5726D01*
Y8006D01*
X100886Y6486D02*X102786D01*
X122379Y34957D02*X122769Y35347D01*
X121209Y34957D02*X122379D01*
X120819Y35347D02*X121209Y34957D01*
X120819Y35347D02*Y37687D01*
X121209Y38077D01*
X122379D01*
X122769Y37687D01*
Y36907D02*Y37687D01*
X122379Y36517D02*X122769Y36907D01*
X121599Y36517D02*X122379D01*
X123705Y34957D02*Y38077D01*
Y34957D02*X125655Y38077D01*
Y34957D02*Y38077D01*
X126981Y34957D02*Y38077D01*
X127995Y34957D02*X128541Y35503D01*
Y37531D01*
X127995Y38077D02*X128541Y37531D01*
X126591Y38077D02*X127995D01*
X126591Y34957D02*X127995D01*
X122976Y5292D02*X124536D01*
X122976D02*Y6852D01*
X123366Y6462D01*
X124146D01*
X124536Y6852D01*
Y8022D01*
X124146Y8412D02*X124536Y8022D01*
X123366Y8412D02*X124146D01*
X122976Y8022D02*X123366Y8412D01*
X125472Y5292D02*X126252Y8412D01*
X127032Y5292D01*
X119591Y13382D02*Y16502D01*
X120605Y13382D02*X121151Y13928D01*
Y15956D01*
X120605Y16502D02*X121151Y15956D01*
X119201Y16502D02*X120605D01*
X119201Y13382D02*X120605D01*
X122087Y14942D02*X123647D01*
X125987Y16112D02*X126377Y16502D01*
X125987Y13772D02*X126377Y13382D01*
X125987Y13772D02*Y16112D01*
X127313Y13382D02*Y14942D01*
X127703Y16502D01*
X128483Y14942D01*
X129263Y16502D01*
X129653Y14942D01*
Y13382D02*Y14942D01*
X130589Y13382D02*X130979Y13772D01*
Y16112D01*
X130589Y16502D02*X130979Y16112D01*
X119591Y27406D02*Y30526D01*
X120605Y27406D02*X121151Y27952D01*
Y29980D01*
X120605Y30526D02*X121151Y29980D01*
X119201Y30526D02*X120605D01*
X119201Y27406D02*X120605D01*
X122087Y28966D02*X123647D01*
X122867Y28186D02*Y29746D01*
X125987Y30136D02*X126377Y30526D01*
X125987Y27796D02*X126377Y27406D01*
X125987Y27796D02*Y30136D01*
X128873Y27406D02*X129263Y27796D01*
X127703Y27406D02*X128873D01*
X127313Y27796D02*X127703Y27406D01*
X127313Y27796D02*Y30136D01*
X127703Y30526D01*
X128873D01*
X129263Y30136D01*
Y29356D02*Y30136D01*
X128873Y28966D02*X129263Y29356D01*
X128093Y28966D02*X128873D01*
X130199Y27406D02*X130589Y27796D01*
Y30136D01*
X130199Y30526D02*X130589Y30136D01*
X3485Y2912D02*Y6232D01*
X4315Y9552D01*
X5975Y6232D01*
X7635Y9552D01*
X8465Y6232D01*
Y2912D02*Y6232D01*
X11287Y9552D02*X13777D01*
X10457Y8722D02*X11287Y9552D01*
X10457Y7062D02*Y8722D01*
Y7062D02*X11287Y6232D01*
X12947D01*
X13777Y7062D01*
X10457Y7892D02*X13777D01*
Y7062D02*Y7892D01*
X18259Y6232D02*X19089Y7062D01*
X16599Y6232D02*X18259D01*
X15769Y7062D02*X16599Y6232D01*
X15769Y7062D02*Y8722D01*
X16599Y9552D01*
X19089Y6232D02*Y8722D01*
X19919Y9552D01*
X16599D02*X18259D01*
X19089Y8722D01*
X22741Y7062D02*Y9552D01*
Y7062D02*X23571Y6232D01*
X25231D01*
X21911D02*X22741Y7062D01*
X27223Y2912D02*Y9552D01*
X30543D01*
X32535Y4572D02*Y4738D01*
Y7062D02*Y9552D01*
X35025Y7062D02*Y9552D01*
Y7062D02*X35855Y6232D01*
X36685D01*
X37515Y7062D01*
Y9552D01*
X34195Y6232D02*X35025Y7062D01*
X39507Y2912D02*Y9552D01*
Y7062D02*X41997Y9552D01*
X39507Y7062D02*X41167Y5402D01*
G54D59*X105233Y20650D02*Y13050D01*
G54D58*X102933Y11950D01*
X91633D02*X102933D01*
X91633Y21750D02*Y11950D01*
Y21750D02*X102933D01*
X105233Y20650D01*
G54D59*Y30650D02*Y23050D01*
G54D58*X102933Y21950D01*
X91633D02*X102933D01*
X91633Y31750D02*Y21950D01*
Y31750D02*X102933D01*
X105233Y30650D01*
X82987Y15543D02*X85487D01*
X82987Y19543D02*X85487Y15543D01*
X82987Y19543D02*X85487D01*
X86687Y16343D02*X87487Y15543D01*
Y19543D01*
X86687D02*X88187D01*
X83085Y25480D02*X85585D01*
X83085Y29480D02*X85585Y25480D01*
X83085Y29480D02*X85585D01*
X86785Y25980D02*X87285Y25480D01*
X88785D01*
X89285Y25980D01*
Y26980D01*
X86785Y29480D02*X89285Y26980D01*
X86785Y29480D02*X89285D01*
X71641Y23272D02*X72941D01*
X70941Y22572D02*X71641Y23272D01*
X70941Y19972D02*Y22572D01*
Y19972D02*X71641Y19272D01*
X72941D01*
X74141Y20072D02*X74941Y19272D01*
Y23272D01*
X74141D02*X75641D01*
X54153Y23547D02*X55453D01*
X53453Y22847D02*X54153Y23547D01*
X53453Y20247D02*Y22847D01*
Y20247D02*X54153Y19547D01*
X55453D01*
X56653Y20047D02*X57153Y19547D01*
X58653D01*
X59153Y20047D01*
Y21047D01*
X56653Y23547D02*X59153Y21047D01*
X56653Y23547D02*X59153D01*
M02*
