G04 start of page 12 for group -3984 idx -3984 *
G04 Title: wearlink, fab *
G04 Creator: pcb 1.99z *
G04 CreationDate: Mon Feb 18 11:15:00 2013 UTC *
G04 For: dijkstra *
G04 Format: Gerber/RS-274X *
G04 PCB-Dimensions (mil): 1326.38 433.46 *
G04 PCB-Coordinate-Origin: lower left *
%MOIN*%
%FSLAX25Y25*%
%LNFAB*%
%ADD67C,0.0100*%
%ADD66C,0.0075*%
%ADD65C,0.0060*%
%ADD64R,0.0080X0.0080*%
G54D64*X122317Y23450D02*X125517D01*
X122317D02*Y20250D01*
X125517D01*
Y23450D02*Y20250D01*
X13400Y56196D02*X16600D01*
X13400D02*Y52996D01*
X16600D01*
Y56196D02*Y52996D01*
G54D65*X140000Y56846D02*Y50846D01*
Y56846D02*X143750Y50846D01*
Y56846D02*Y50846D01*
X145550Y56096D02*Y51596D01*
Y56096D02*X146300Y56846D01*
X147800D01*
X148550Y56096D01*
Y51596D01*
X147800Y50846D02*X148550Y51596D01*
X146300Y50846D02*X147800D01*
X145550Y51596D02*X146300Y50846D01*
X98000Y55646D02*X99200Y56846D01*
Y50846D01*
X98000D02*X100250D01*
X45000Y51596D02*X45750Y50846D01*
X45000Y56096D02*Y51596D01*
Y56096D02*X45750Y56846D01*
X47250D01*
X48000Y56096D01*
Y51596D01*
X47250Y50846D02*X48000Y51596D01*
X45750Y50846D02*X47250D01*
X45000Y52346D02*X48000Y55346D01*
X49800Y50846D02*X50550D01*
X52350Y51596D02*X53100Y50846D01*
X52350Y56096D02*Y51596D01*
Y56096D02*X53100Y56846D01*
X54600D01*
X55350Y56096D01*
Y51596D01*
X54600Y50846D02*X55350Y51596D01*
X53100Y50846D02*X54600D01*
X52350Y52346D02*X55350Y55346D01*
X57900Y50846D02*X60900Y56846D01*
X57150D02*X60900D01*
X63450Y50846D02*X65700Y53846D01*
Y56096D02*Y53846D01*
X64950Y56846D02*X65700Y56096D01*
X63450Y56846D02*X64950D01*
X62700Y56096D02*X63450Y56846D01*
X62700Y56096D02*Y54596D01*
X63450Y53846D01*
X65700D01*
X27842Y27677D02*G75*G03X29442Y27677I800J0D01*G01*
G75*G03X27842Y27677I-800J0D01*G01*
X39653Y21772D02*G75*G03X41253Y21772I800J0D01*G01*
G75*G03X39653Y21772I-800J0D01*G01*
X27842Y15866D02*G75*G03X29442Y15866I800J0D01*G01*
G75*G03X27842Y15866I-800J0D01*G01*
X14200Y69596D02*G75*G03X15800Y69596I800J0D01*G01*
G75*G03X14200Y69596I-800J0D01*G01*
X135000Y71846D02*X136500Y68846D01*
X138000Y71846D01*
X136500Y68846D02*Y65846D01*
X139800Y69146D02*X142050D01*
X139800Y65846D02*X142800D01*
X139800Y71846D02*Y65846D01*
Y71846D02*X142800D01*
X147600D02*X148350Y71096D01*
X145350Y71846D02*X147600D01*
X144600Y71096D02*X145350Y71846D01*
X144600Y71096D02*Y69596D01*
X145350Y68846D01*
X147600D01*
X148350Y68096D01*
Y66596D01*
X147600Y65846D02*X148350Y66596D01*
X145350Y65846D02*X147600D01*
X144600Y66596D02*X145350Y65846D01*
X98000Y71096D02*X98750Y71846D01*
X100250D01*
X101000Y71096D01*
X100250Y65846D02*X101000Y66596D01*
X98750Y65846D02*X100250D01*
X98000Y66596D02*X98750Y65846D01*
Y69146D02*X100250D01*
X101000Y71096D02*Y69896D01*
Y68396D02*Y66596D01*
Y68396D02*X100250Y69146D01*
X101000Y69896D02*X100250Y69146D01*
X45000Y66596D02*X45750Y65846D01*
X45000Y71096D02*Y66596D01*
Y71096D02*X45750Y71846D01*
X47250D01*
X48000Y71096D01*
Y66596D01*
X47250Y65846D02*X48000Y66596D01*
X45750Y65846D02*X47250D01*
X45000Y67346D02*X48000Y70346D01*
X49800Y65846D02*X50550D01*
X52350Y66596D02*X53100Y65846D01*
X52350Y71096D02*Y66596D01*
Y71096D02*X53100Y71846D01*
X54600D01*
X55350Y71096D01*
Y66596D01*
X54600Y65846D02*X55350Y66596D01*
X53100Y65846D02*X54600D01*
X52350Y67346D02*X55350Y70346D01*
X57150Y68096D02*X60150Y71846D01*
X57150Y68096D02*X60900D01*
X60150Y71846D02*Y65846D01*
X62700Y70646D02*X63900Y71846D01*
Y65846D01*
X62700D02*X64950D01*
X53662Y12598D02*X56062Y10198D01*
X53662D02*X56062Y12598D01*
X73662Y16598D02*X76062Y14198D01*
X73662D02*X76062Y16598D01*
X73662Y8598D02*X76062Y6198D01*
X73662D02*X76062Y8598D01*
X9725Y15098D02*X12125Y12698D01*
X9725D02*X12125Y15098D01*
X7757D02*X10157Y12698D01*
X7757D02*X10157Y15098D01*
X9725Y30846D02*X12125Y28446D01*
X9725D02*X12125Y30846D01*
X7757D02*X10157Y28446D01*
X7757D02*X10157Y30846D01*
X13800Y85796D02*X16200Y83396D01*
X13800D02*X16200Y85796D01*
X140000Y86846D02*Y80846D01*
Y86846D02*X143750Y80846D01*
Y86846D02*Y80846D01*
X145550Y86096D02*Y81596D01*
Y86096D02*X146300Y86846D01*
X147800D01*
X148550Y86096D01*
Y81596D01*
X147800Y80846D02*X148550Y81596D01*
X146300Y80846D02*X147800D01*
X145550Y81596D02*X146300Y80846D01*
X98750D02*X101750Y86846D01*
X98000D02*X101750D01*
X45000Y81596D02*X45750Y80846D01*
X45000Y86096D02*Y81596D01*
Y86096D02*X45750Y86846D01*
X47250D01*
X48000Y86096D01*
Y81596D01*
X47250Y80846D02*X48000Y81596D01*
X45750Y80846D02*X47250D01*
X45000Y82346D02*X48000Y85346D01*
X49800Y80846D02*X50550D01*
X52350Y81596D02*X53100Y80846D01*
X52350Y86096D02*Y81596D01*
Y86096D02*X53100Y86846D01*
X54600D01*
X55350Y86096D01*
Y81596D01*
X54600Y80846D02*X55350Y81596D01*
X53100Y80846D02*X54600D01*
X52350Y82346D02*X55350Y85346D01*
X57150Y86096D02*X57900Y86846D01*
X59400D01*
X60150Y86096D01*
X59400Y80846D02*X60150Y81596D01*
X57900Y80846D02*X59400D01*
X57150Y81596D02*X57900Y80846D01*
Y84146D02*X59400D01*
X60150Y86096D02*Y84896D01*
Y83396D02*Y81596D01*
Y83396D02*X59400Y84146D01*
X60150Y84896D02*X59400Y84146D01*
X62700Y80846D02*X64950Y83846D01*
Y86096D02*Y83846D01*
X64200Y86846D02*X64950Y86096D01*
X62700Y86846D02*X64200D01*
X61950Y86096D02*X62700Y86846D01*
X61950Y86096D02*Y84596D01*
X62700Y83846D01*
X64950D01*
X112106Y8450D02*Y5250D01*
X110506Y6850D02*X113706D01*
X112106Y18450D02*Y15250D01*
X110506Y16850D02*X113706D01*
X112106Y28450D02*Y25250D01*
X110506Y26850D02*X113706D01*
X112106Y38450D02*Y35250D01*
X110506Y36850D02*X113706D01*
X15000Y101196D02*Y97996D01*
X13400Y99596D02*X16600D01*
X135000Y101846D02*X136500Y98846D01*
X138000Y101846D01*
X136500Y98846D02*Y95846D01*
X139800Y99146D02*X142050D01*
X139800Y95846D02*X142800D01*
X139800Y101846D02*Y95846D01*
Y101846D02*X142800D01*
X147600D02*X148350Y101096D01*
X145350Y101846D02*X147600D01*
X144600Y101096D02*X145350Y101846D01*
X144600Y101096D02*Y99596D01*
X145350Y98846D01*
X147600D01*
X148350Y98096D01*
Y96596D01*
X147600Y95846D02*X148350Y96596D01*
X145350Y95846D02*X147600D01*
X144600Y96596D02*X145350Y95846D01*
X98000Y98096D02*X101000Y101846D01*
X98000Y98096D02*X101750D01*
X101000Y101846D02*Y95846D01*
X45000Y96596D02*X45750Y95846D01*
X45000Y101096D02*Y96596D01*
Y101096D02*X45750Y101846D01*
X47250D01*
X48000Y101096D01*
Y96596D01*
X47250Y95846D02*X48000Y96596D01*
X45750Y95846D02*X47250D01*
X45000Y97346D02*X48000Y100346D01*
X49800Y95846D02*X50550D01*
X52350Y96596D02*X53100Y95846D01*
X52350Y101096D02*Y96596D01*
Y101096D02*X53100Y101846D01*
X54600D01*
X55350Y101096D01*
Y96596D01*
X54600Y95846D02*X55350Y96596D01*
X53100Y95846D02*X54600D01*
X52350Y97346D02*X55350Y100346D01*
X57150Y101096D02*X57900Y101846D01*
X59400D01*
X60150Y101096D01*
X59400Y95846D02*X60150Y96596D01*
X57900Y95846D02*X59400D01*
X57150Y96596D02*X57900Y95846D01*
Y99146D02*X59400D01*
X60150Y101096D02*Y99896D01*
Y98396D02*Y96596D01*
Y98396D02*X59400Y99146D01*
X60150Y99896D02*X59400Y99146D01*
X61950Y96596D02*X62700Y95846D01*
X61950Y97796D02*Y96596D01*
Y97796D02*X63000Y98846D01*
X63900D01*
X64950Y97796D01*
Y96596D01*
X64200Y95846D02*X64950Y96596D01*
X62700Y95846D02*X64200D01*
X61950Y99896D02*X63000Y98846D01*
X61950Y101096D02*Y99896D01*
Y101096D02*X62700Y101846D01*
X64200D01*
X64950Y101096D01*
Y99896D01*
X63900Y98846D02*X64950Y99896D01*
X46752Y34370D02*Y32770D01*
Y34370D02*X48139Y35170D01*
X46752Y34370D02*X45365Y35170D01*
X64862Y37520D02*Y35920D01*
Y37520D02*X66249Y38320D01*
X64862Y37520D02*X63476Y38320D01*
X64862Y32008D02*Y30408D01*
Y32008D02*X66249Y32808D01*
X64862Y32008D02*X63476Y32808D01*
X64862Y4449D02*Y2849D01*
Y4449D02*X66249Y5249D01*
X64862Y4449D02*X63476Y5249D01*
X46795Y14031D02*Y12431D01*
Y14031D02*X48182Y14831D01*
X46795Y14031D02*X45409Y14831D01*
X15000Y114596D02*Y112996D01*
Y114596D02*X16387Y115396D01*
X15000Y114596D02*X13613Y115396D01*
X135000Y116846D02*X136500Y113846D01*
X138000Y116846D01*
X136500Y113846D02*Y110846D01*
X139800Y114146D02*X142050D01*
X139800Y110846D02*X142800D01*
X139800Y116846D02*Y110846D01*
Y116846D02*X142800D01*
X147600D02*X148350Y116096D01*
X145350Y116846D02*X147600D01*
X144600Y116096D02*X145350Y116846D01*
X144600Y116096D02*Y114596D01*
X145350Y113846D01*
X147600D01*
X148350Y113096D01*
Y111596D01*
X147600Y110846D02*X148350Y111596D01*
X145350Y110846D02*X147600D01*
X144600Y111596D02*X145350Y110846D01*
X98000Y116846D02*X101000D01*
X98000D02*Y113846D01*
X98750Y114596D01*
X100250D01*
X101000Y113846D01*
Y111596D01*
X100250Y110846D02*X101000Y111596D01*
X98750Y110846D02*X100250D01*
X98000Y111596D02*X98750Y110846D01*
X45000Y111596D02*X45750Y110846D01*
X45000Y116096D02*Y111596D01*
Y116096D02*X45750Y116846D01*
X47250D01*
X48000Y116096D01*
Y111596D01*
X47250Y110846D02*X48000Y111596D01*
X45750Y110846D02*X47250D01*
X45000Y112346D02*X48000Y115346D01*
X49800Y110846D02*X50550D01*
X52350Y111596D02*X53100Y110846D01*
X52350Y116096D02*Y111596D01*
Y116096D02*X53100Y116846D01*
X54600D01*
X55350Y116096D01*
Y111596D01*
X54600Y110846D02*X55350Y111596D01*
X53100Y110846D02*X54600D01*
X52350Y112346D02*X55350Y115346D01*
X57150Y116096D02*X57900Y116846D01*
X60150D01*
X60900Y116096D01*
Y114596D01*
X57150Y110846D02*X60900Y114596D01*
X57150Y110846D02*X60900D01*
X62700Y111596D02*X63450Y110846D01*
X62700Y116096D02*Y111596D01*
Y116096D02*X63450Y116846D01*
X64950D01*
X65700Y116096D01*
Y111596D01*
X64950Y110846D02*X65700Y111596D01*
X63450Y110846D02*X64950D01*
X62700Y112346D02*X65700Y115346D01*
X3000Y131846D02*X3750Y131096D01*
X750Y131846D02*X3000D01*
X0Y131096D02*X750Y131846D01*
X0Y131096D02*Y129596D01*
X750Y128846D01*
X3000D01*
X3750Y128096D01*
Y126596D01*
X3000Y125846D02*X3750Y126596D01*
X750Y125846D02*X3000D01*
X0Y126596D02*X750Y125846D01*
X5550Y128846D02*Y126596D01*
X6300Y125846D01*
X8550Y128846D02*Y124346D01*
X7800Y123596D02*X8550Y124346D01*
X6300Y123596D02*X7800D01*
X5550Y124346D02*X6300Y123596D01*
Y125846D02*X7800D01*
X8550Y126596D01*
X11100Y128096D02*Y125846D01*
Y128096D02*X11850Y128846D01*
X12600D01*
X13350Y128096D01*
Y125846D01*
Y128096D02*X14100Y128846D01*
X14850D01*
X15600Y128096D01*
Y125846D01*
X10350Y128846D02*X11100Y128096D01*
X17400Y131846D02*Y125846D01*
Y126596D02*X18150Y125846D01*
X19650D01*
X20400Y126596D01*
Y128096D02*Y126596D01*
X19650Y128846D02*X20400Y128096D01*
X18150Y128846D02*X19650D01*
X17400Y128096D02*X18150Y128846D01*
X22200Y128096D02*Y126596D01*
Y128096D02*X22950Y128846D01*
X24450D01*
X25200Y128096D01*
Y126596D01*
X24450Y125846D02*X25200Y126596D01*
X22950Y125846D02*X24450D01*
X22200Y126596D02*X22950Y125846D01*
X27000Y131846D02*Y126596D01*
X27750Y125846D01*
X0Y122596D02*X29250D01*
X41750Y131846D02*Y125846D01*
X43700Y131846D02*X44750Y130796D01*
Y126896D01*
X43700Y125846D02*X44750Y126896D01*
X41000Y125846D02*X43700D01*
X41000Y131846D02*X43700D01*
G54D66*X46550Y130346D02*Y130196D01*
G54D65*Y128096D02*Y125846D01*
X50300Y128846D02*X51050Y128096D01*
X48800Y128846D02*X50300D01*
X48050Y128096D02*X48800Y128846D01*
X48050Y128096D02*Y126596D01*
X48800Y125846D01*
X51050Y128846D02*Y126596D01*
X51800Y125846D01*
X48800D02*X50300D01*
X51050Y126596D01*
X54350Y128096D02*Y125846D01*
Y128096D02*X55100Y128846D01*
X55850D01*
X56600Y128096D01*
Y125846D01*
Y128096D02*X57350Y128846D01*
X58100D01*
X58850Y128096D01*
Y125846D01*
X53600Y128846D02*X54350Y128096D01*
X60650Y125846D02*X61400D01*
X65900Y126596D02*X66650Y125846D01*
X65900Y131096D02*X66650Y131846D01*
X65900Y131096D02*Y126596D01*
X68450Y131846D02*X69950D01*
X69200D02*Y125846D01*
X68450D02*X69950D01*
X72500Y128096D02*Y125846D01*
Y128096D02*X73250Y128846D01*
X74000D01*
X74750Y128096D01*
Y125846D01*
X71750Y128846D02*X72500Y128096D01*
X77300Y128846D02*X79550D01*
X76550Y128096D02*X77300Y128846D01*
X76550Y128096D02*Y126596D01*
X77300Y125846D01*
X79550D01*
X81350Y131846D02*Y125846D01*
Y128096D02*X82100Y128846D01*
X83600D01*
X84350Y128096D01*
Y125846D01*
X86150Y131846D02*X86900Y131096D01*
Y126596D01*
X86150Y125846D02*X86900Y126596D01*
X41000Y122596D02*X88700D01*
X96050Y125846D02*X98000D01*
X95000Y126896D02*X96050Y125846D01*
X95000Y130796D02*Y126896D01*
Y130796D02*X96050Y131846D01*
X98000D01*
X99800Y128096D02*Y126596D01*
Y128096D02*X100550Y128846D01*
X102050D01*
X102800Y128096D01*
Y126596D01*
X102050Y125846D02*X102800Y126596D01*
X100550Y125846D02*X102050D01*
X99800Y126596D02*X100550Y125846D01*
X104600Y128846D02*Y126596D01*
X105350Y125846D01*
X106850D01*
X107600Y126596D01*
Y128846D02*Y126596D01*
X110150Y128096D02*Y125846D01*
Y128096D02*X110900Y128846D01*
X111650D01*
X112400Y128096D01*
Y125846D01*
X109400Y128846D02*X110150Y128096D01*
X114950Y131846D02*Y126596D01*
X115700Y125846D01*
X114200Y129596D02*X115700D01*
X95000Y122596D02*X117200D01*
X130750Y131846D02*Y125846D01*
X130000Y131846D02*X133000D01*
X133750Y131096D01*
Y129596D01*
X133000Y128846D02*X133750Y129596D01*
X130750Y128846D02*X133000D01*
X135550Y131846D02*Y126596D01*
X136300Y125846D01*
X140050Y128846D02*X140800Y128096D01*
X138550Y128846D02*X140050D01*
X137800Y128096D02*X138550Y128846D01*
X137800Y128096D02*Y126596D01*
X138550Y125846D01*
X140800Y128846D02*Y126596D01*
X141550Y125846D01*
X138550D02*X140050D01*
X140800Y126596D01*
X144100Y131846D02*Y126596D01*
X144850Y125846D01*
X143350Y129596D02*X144850D01*
X147100Y125846D02*X149350D01*
X146350Y126596D02*X147100Y125846D01*
X146350Y128096D02*Y126596D01*
Y128096D02*X147100Y128846D01*
X148600D01*
X149350Y128096D01*
X146350Y127346D02*X149350D01*
Y128096D02*Y127346D01*
X154150Y131846D02*Y125846D01*
X153400D02*X154150Y126596D01*
X151900Y125846D02*X153400D01*
X151150Y126596D02*X151900Y125846D01*
X151150Y128096D02*Y126596D01*
Y128096D02*X151900Y128846D01*
X153400D01*
X154150Y128096D01*
X157450Y128846D02*Y128096D01*
Y126596D02*Y125846D01*
X155950Y131096D02*Y130346D01*
Y131096D02*X156700Y131846D01*
X158200D01*
X158950Y131096D01*
Y130346D01*
X157450Y128846D02*X158950Y130346D01*
X130000Y122596D02*X160750D01*
X0Y146846D02*X3000D01*
X1500D02*Y140846D01*
X4800Y146846D02*Y140846D01*
Y143096D02*X5550Y143846D01*
X7050D01*
X7800Y143096D01*
Y140846D01*
X10350D02*X12600D01*
X9600Y141596D02*X10350Y140846D01*
X9600Y143096D02*Y141596D01*
Y143096D02*X10350Y143846D01*
X11850D01*
X12600Y143096D01*
X9600Y142346D02*X12600D01*
Y143096D02*Y142346D01*
X15150Y143096D02*Y140846D01*
Y143096D02*X15900Y143846D01*
X17400D01*
X14400D02*X15150Y143096D01*
X19950Y140846D02*X22200D01*
X19200Y141596D02*X19950Y140846D01*
X19200Y143096D02*Y141596D01*
Y143096D02*X19950Y143846D01*
X21450D01*
X22200Y143096D01*
X19200Y142346D02*X22200D01*
Y143096D02*Y142346D01*
X28950Y143846D02*X29700Y143096D01*
X27450Y143846D02*X28950D01*
X26700Y143096D02*X27450Y143846D01*
X26700Y143096D02*Y141596D01*
X27450Y140846D01*
X29700Y143846D02*Y141596D01*
X30450Y140846D01*
X27450D02*X28950D01*
X29700Y141596D01*
X33000Y143096D02*Y140846D01*
Y143096D02*X33750Y143846D01*
X35250D01*
X32250D02*X33000Y143096D01*
X37800Y140846D02*X40050D01*
X37050Y141596D02*X37800Y140846D01*
X37050Y143096D02*Y141596D01*
Y143096D02*X37800Y143846D01*
X39300D01*
X40050Y143096D01*
X37050Y142346D02*X40050D01*
Y143096D02*Y142346D01*
X44550Y146846D02*X47550D01*
X44550D02*Y143846D01*
X45300Y144596D01*
X46800D01*
X47550Y143846D01*
Y141596D01*
X46800Y140846D02*X47550Y141596D01*
X45300Y140846D02*X46800D01*
X44550Y141596D02*X45300Y140846D01*
X55050Y146846D02*Y140846D01*
X54300D02*X55050Y141596D01*
X52800Y140846D02*X54300D01*
X52050Y141596D02*X52800Y140846D01*
X52050Y143096D02*Y141596D01*
Y143096D02*X52800Y143846D01*
X54300D01*
X55050Y143096D01*
G54D66*X56850Y145346D02*Y145196D01*
G54D65*Y143096D02*Y140846D01*
X59100Y146096D02*Y140846D01*
Y146096D02*X59850Y146846D01*
X60600D01*
X58350Y143846D02*X59850D01*
X62850Y146096D02*Y140846D01*
Y146096D02*X63600Y146846D01*
X64350D01*
X62100Y143846D02*X63600D01*
X66600Y140846D02*X68850D01*
X65850Y141596D02*X66600Y140846D01*
X65850Y143096D02*Y141596D01*
Y143096D02*X66600Y143846D01*
X68100D01*
X68850Y143096D01*
X65850Y142346D02*X68850D01*
Y143096D02*Y142346D01*
X71400Y143096D02*Y140846D01*
Y143096D02*X72150Y143846D01*
X73650D01*
X70650D02*X71400Y143096D01*
X76200Y140846D02*X78450D01*
X75450Y141596D02*X76200Y140846D01*
X75450Y143096D02*Y141596D01*
Y143096D02*X76200Y143846D01*
X77700D01*
X78450Y143096D01*
X75450Y142346D02*X78450D01*
Y143096D02*Y142346D01*
X81000Y143096D02*Y140846D01*
Y143096D02*X81750Y143846D01*
X82500D01*
X83250Y143096D01*
Y140846D01*
X80250Y143846D02*X81000Y143096D01*
X85800Y146846D02*Y141596D01*
X86550Y140846D01*
X85050Y144596D02*X86550D01*
X93750Y146846D02*Y140846D01*
X93000D02*X93750Y141596D01*
X91500Y140846D02*X93000D01*
X90750Y141596D02*X91500Y140846D01*
X90750Y143096D02*Y141596D01*
Y143096D02*X91500Y143846D01*
X93000D01*
X93750Y143096D01*
X96300D02*Y140846D01*
Y143096D02*X97050Y143846D01*
X98550D01*
X95550D02*X96300Y143096D01*
G54D66*X100350Y145346D02*Y145196D01*
G54D65*Y143096D02*Y140846D01*
X101850Y146846D02*Y141596D01*
X102600Y140846D01*
X104100Y146846D02*Y141596D01*
X104850Y140846D01*
X109800D02*X112050D01*
X112800Y141596D01*
X112050Y142346D02*X112800Y141596D01*
X109800Y142346D02*X112050D01*
X109050Y143096D02*X109800Y142346D01*
X109050Y143096D02*X109800Y143846D01*
X112050D01*
X112800Y143096D01*
X109050Y141596D02*X109800Y140846D01*
G54D66*X114600Y145346D02*Y145196D01*
G54D65*Y143096D02*Y140846D01*
X116100Y143846D02*X119100D01*
X116100Y140846D02*X119100Y143846D01*
X116100Y140846D02*X119100D01*
X121650D02*X123900D01*
X120900Y141596D02*X121650Y140846D01*
X120900Y143096D02*Y141596D01*
Y143096D02*X121650Y143846D01*
X123150D01*
X123900Y143096D01*
X120900Y142346D02*X123900D01*
Y143096D02*Y142346D01*
X126450Y140846D02*X128700D01*
X129450Y141596D01*
X128700Y142346D02*X129450Y141596D01*
X126450Y142346D02*X128700D01*
X125700Y143096D02*X126450Y142346D01*
X125700Y143096D02*X126450Y143846D01*
X128700D01*
X129450Y143096D01*
X125700Y141596D02*X126450Y140846D01*
X133950Y143846D02*Y141596D01*
X134700Y140846D01*
X136200D01*
X136950Y141596D01*
Y143846D02*Y141596D01*
X139500Y140846D02*X141750D01*
X142500Y141596D01*
X141750Y142346D02*X142500Y141596D01*
X139500Y142346D02*X141750D01*
X138750Y143096D02*X139500Y142346D01*
X138750Y143096D02*X139500Y143846D01*
X141750D01*
X142500Y143096D01*
X138750Y141596D02*X139500Y140846D01*
X145050D02*X147300D01*
X144300Y141596D02*X145050Y140846D01*
X144300Y143096D02*Y141596D01*
Y143096D02*X145050Y143846D01*
X146550D01*
X147300Y143096D01*
X144300Y142346D02*X147300D01*
Y143096D02*Y142346D01*
X152100Y146846D02*Y140846D01*
X151350D02*X152100Y141596D01*
X149850Y140846D02*X151350D01*
X149100Y141596D02*X149850Y140846D01*
X149100Y143096D02*Y141596D01*
Y143096D02*X149850Y143846D01*
X151350D01*
X152100Y143096D01*
G54D66*X156600Y145346D02*Y145196D01*
G54D65*Y143096D02*Y140846D01*
X158850Y143096D02*Y140846D01*
Y143096D02*X159600Y143846D01*
X160350D01*
X161100Y143096D01*
Y140846D01*
X158100Y143846D02*X158850Y143096D01*
X166350Y146846D02*Y141596D01*
X167100Y140846D01*
X165600Y144596D02*X167100D01*
X168600Y146846D02*Y140846D01*
Y143096D02*X169350Y143846D01*
X170850D01*
X171600Y143096D01*
Y140846D01*
G54D66*X173400Y145346D02*Y145196D01*
G54D65*Y143096D02*Y140846D01*
X175650D02*X177900D01*
X178650Y141596D01*
X177900Y142346D02*X178650Y141596D01*
X175650Y142346D02*X177900D01*
X174900Y143096D02*X175650Y142346D01*
X174900Y143096D02*X175650Y143846D01*
X177900D01*
X178650Y143096D01*
X174900Y141596D02*X175650Y140846D01*
X183150Y146846D02*Y141596D01*
X183900Y140846D01*
X187650Y143846D02*X188400Y143096D01*
X186150Y143846D02*X187650D01*
X185400Y143096D02*X186150Y143846D01*
X185400Y143096D02*Y141596D01*
X186150Y140846D01*
X188400Y143846D02*Y141596D01*
X189150Y140846D01*
X186150D02*X187650D01*
X188400Y141596D01*
X190950Y143846D02*Y141596D01*
X191700Y140846D01*
X193950Y143846D02*Y139346D01*
X193200Y138596D02*X193950Y139346D01*
X191700Y138596D02*X193200D01*
X190950Y139346D02*X191700Y138596D01*
Y140846D02*X193200D01*
X193950Y141596D01*
X195750Y143096D02*Y141596D01*
Y143096D02*X196500Y143846D01*
X198000D01*
X198750Y143096D01*
Y141596D01*
X198000Y140846D02*X198750Y141596D01*
X196500Y140846D02*X198000D01*
X195750Y141596D02*X196500Y140846D01*
X200550Y143846D02*Y141596D01*
X201300Y140846D01*
X202800D01*
X203550Y141596D01*
Y143846D02*Y141596D01*
X206100Y146846D02*Y141596D01*
X206850Y140846D01*
X205350Y144596D02*X206850D01*
X208350Y139346D02*X209850Y140846D01*
X214350Y146096D02*X215100Y146846D01*
X217350D01*
X218100Y146096D01*
Y144596D01*
X214350Y140846D02*X218100Y144596D01*
X214350Y140846D02*X218100D01*
X219900Y141596D02*X220650Y140846D01*
X219900Y146096D02*Y141596D01*
Y146096D02*X220650Y146846D01*
X222150D01*
X222900Y146096D01*
Y141596D01*
X222150Y140846D02*X222900Y141596D01*
X220650Y140846D02*X222150D01*
X219900Y142346D02*X222900Y145346D01*
X227400Y146846D02*Y140846D01*
Y143096D02*X228150Y143846D01*
X229650D01*
X230400Y143096D01*
Y140846D01*
X232200Y143096D02*Y141596D01*
Y143096D02*X232950Y143846D01*
X234450D01*
X235200Y143096D01*
Y141596D01*
X234450Y140846D02*X235200Y141596D01*
X232950Y140846D02*X234450D01*
X232200Y141596D02*X232950Y140846D01*
X237000Y146846D02*Y141596D01*
X237750Y140846D01*
X240000D02*X242250D01*
X239250Y141596D02*X240000Y140846D01*
X239250Y143096D02*Y141596D01*
Y143096D02*X240000Y143846D01*
X241500D01*
X242250Y143096D01*
X239250Y142346D02*X242250D01*
Y143096D02*Y142346D01*
X244800Y140846D02*X247050D01*
X247800Y141596D01*
X247050Y142346D02*X247800Y141596D01*
X244800Y142346D02*X247050D01*
X244050Y143096D02*X244800Y142346D01*
X244050Y143096D02*X244800Y143846D01*
X247050D01*
X247800Y143096D01*
X244050Y141596D02*X244800Y140846D01*
X253050Y146846D02*Y141596D01*
X253800Y140846D01*
X252300Y144596D02*X253800D01*
X255300Y143096D02*Y141596D01*
Y143096D02*X256050Y143846D01*
X257550D01*
X258300Y143096D01*
Y141596D01*
X257550Y140846D02*X258300Y141596D01*
X256050Y140846D02*X257550D01*
X255300Y141596D02*X256050Y140846D01*
X260850Y146846D02*Y141596D01*
X261600Y140846D01*
X260100Y144596D02*X261600D01*
X265350Y143846D02*X266100Y143096D01*
X263850Y143846D02*X265350D01*
X263100Y143096D02*X263850Y143846D01*
X263100Y143096D02*Y141596D01*
X263850Y140846D01*
X266100Y143846D02*Y141596D01*
X266850Y140846D01*
X263850D02*X265350D01*
X266100Y141596D01*
X268650Y146846D02*Y141596D01*
X269400Y140846D01*
G54D67*X0Y43346D02*X132638D01*
X0D02*Y0D01*
X132638Y43346D02*Y0D01*
X0D02*X132638D01*
G54D65*X200000Y56846D02*Y50846D01*
Y56846D02*X202250Y53846D01*
X204500Y56846D01*
Y50846D01*
X208550Y53846D02*X209300Y53096D01*
X207050Y53846D02*X208550D01*
X206300Y53096D02*X207050Y53846D01*
X206300Y53096D02*Y51596D01*
X207050Y50846D01*
X209300Y53846D02*Y51596D01*
X210050Y50846D01*
X207050D02*X208550D01*
X209300Y51596D01*
X211850Y53846D02*X214850Y50846D01*
X211850D02*X214850Y53846D01*
G54D66*X216650Y55346D02*Y55196D01*
G54D65*Y53096D02*Y50846D01*
X218900Y53096D02*Y50846D01*
Y53096D02*X219650Y53846D01*
X220400D01*
X221150Y53096D01*
Y50846D01*
Y53096D02*X221900Y53846D01*
X222650D01*
X223400Y53096D01*
Y50846D01*
X218150Y53846D02*X218900Y53096D01*
X225200Y53846D02*Y51596D01*
X225950Y50846D01*
X227450D01*
X228200Y51596D01*
Y53846D02*Y51596D01*
X230750Y53096D02*Y50846D01*
Y53096D02*X231500Y53846D01*
X232250D01*
X233000Y53096D01*
Y50846D01*
Y53096D02*X233750Y53846D01*
X234500D01*
X235250Y53096D01*
Y50846D01*
X230000Y53846D02*X230750Y53096D01*
X240500Y56846D02*Y50846D01*
X242450Y56846D02*X243500Y55796D01*
Y51896D01*
X242450Y50846D02*X243500Y51896D01*
X239750Y50846D02*X242450D01*
X239750Y56846D02*X242450D01*
G54D66*X245300Y55346D02*Y55196D01*
G54D65*Y53096D02*Y50846D01*
X247550Y53096D02*Y50846D01*
Y53096D02*X248300Y53846D01*
X249050D01*
X249800Y53096D01*
Y50846D01*
Y53096D02*X250550Y53846D01*
X251300D01*
X252050Y53096D01*
Y50846D01*
X246800Y53846D02*X247550Y53096D01*
X254600Y50846D02*X256850D01*
X253850Y51596D02*X254600Y50846D01*
X253850Y53096D02*Y51596D01*
Y53096D02*X254600Y53846D01*
X256100D01*
X256850Y53096D01*
X253850Y52346D02*X256850D01*
Y53096D02*Y52346D01*
X259400Y53096D02*Y50846D01*
Y53096D02*X260150Y53846D01*
X260900D01*
X261650Y53096D01*
Y50846D01*
X258650Y53846D02*X259400Y53096D01*
X264200Y50846D02*X266450D01*
X267200Y51596D01*
X266450Y52346D02*X267200Y51596D01*
X264200Y52346D02*X266450D01*
X263450Y53096D02*X264200Y52346D01*
X263450Y53096D02*X264200Y53846D01*
X266450D01*
X267200Y53096D01*
X263450Y51596D02*X264200Y50846D01*
G54D66*X269000Y55346D02*Y55196D01*
G54D65*Y53096D02*Y50846D01*
X270500Y53096D02*Y51596D01*
Y53096D02*X271250Y53846D01*
X272750D01*
X273500Y53096D01*
Y51596D01*
X272750Y50846D02*X273500Y51596D01*
X271250Y50846D02*X272750D01*
X270500Y51596D02*X271250Y50846D01*
X276050Y53096D02*Y50846D01*
Y53096D02*X276800Y53846D01*
X277550D01*
X278300Y53096D01*
Y50846D01*
X275300Y53846D02*X276050Y53096D01*
X280850Y50846D02*X283100D01*
X283850Y51596D01*
X283100Y52346D02*X283850Y51596D01*
X280850Y52346D02*X283100D01*
X280100Y53096D02*X280850Y52346D01*
X280100Y53096D02*X280850Y53846D01*
X283100D01*
X283850Y53096D01*
X280100Y51596D02*X280850Y50846D01*
X285650Y54596D02*X286400D01*
X285650Y53096D02*X286400D01*
X290900Y55646D02*X292100Y56846D01*
Y50846D01*
X290900D02*X293150D01*
X294950Y56096D02*X295700Y56846D01*
X297200D01*
X297950Y56096D01*
X297200Y50846D02*X297950Y51596D01*
X295700Y50846D02*X297200D01*
X294950Y51596D02*X295700Y50846D01*
Y54146D02*X297200D01*
X297950Y56096D02*Y54896D01*
Y53396D02*Y51596D01*
Y53396D02*X297200Y54146D01*
X297950Y54896D02*X297200Y54146D01*
X299750Y56096D02*X300500Y56846D01*
X302750D01*
X303500Y56096D01*
Y54596D01*
X299750Y50846D02*X303500Y54596D01*
X299750Y50846D02*X303500D01*
X307550Y56846D02*X308300Y56096D01*
X306050Y56846D02*X307550D01*
X305300Y56096D02*X306050Y56846D01*
X305300Y56096D02*Y51596D01*
X306050Y50846D01*
X307550Y54146D02*X308300Y53396D01*
X305300Y54146D02*X307550D01*
X306050Y50846D02*X307550D01*
X308300Y51596D01*
Y53396D02*Y51596D01*
X310100Y50846D02*X310850D01*
X312650Y56096D02*X313400Y56846D01*
X314900D01*
X315650Y56096D01*
X314900Y50846D02*X315650Y51596D01*
X313400Y50846D02*X314900D01*
X312650Y51596D02*X313400Y50846D01*
Y54146D02*X314900D01*
X315650Y56096D02*Y54896D01*
Y53396D02*Y51596D01*
Y53396D02*X314900Y54146D01*
X315650Y54896D02*X314900Y54146D01*
X318200Y50846D02*X321200Y56846D01*
X317450D02*X321200D01*
X323750Y50846D02*X326750Y56846D01*
X323000D02*X326750D01*
X329300Y50846D02*X331550Y53846D01*
Y56096D02*Y53846D01*
X330800Y56846D02*X331550Y56096D01*
X329300Y56846D02*X330800D01*
X328550Y56096D02*X329300Y56846D01*
X328550Y56096D02*Y54596D01*
X329300Y53846D01*
X331550D01*
X333350Y56846D02*X336350D01*
X333350D02*Y53846D01*
X334100Y54596D01*
X335600D01*
X336350Y53846D01*
Y51596D01*
X335600Y50846D02*X336350Y51596D01*
X334100Y50846D02*X335600D01*
X333350Y51596D02*X334100Y50846D01*
X338150Y56096D02*X338900Y56846D01*
X340400D01*
X341150Y56096D01*
X340400Y50846D02*X341150Y51596D01*
X338900Y50846D02*X340400D01*
X338150Y51596D02*X338900Y50846D01*
Y54146D02*X340400D01*
X341150Y56096D02*Y54896D01*
Y53396D02*Y51596D01*
Y53396D02*X340400Y54146D01*
X341150Y54896D02*X340400Y54146D01*
X346400Y53096D02*Y50846D01*
Y53096D02*X347150Y53846D01*
X347900D01*
X348650Y53096D01*
Y50846D01*
Y53096D02*X349400Y53846D01*
X350150D01*
X350900Y53096D01*
Y50846D01*
X345650Y53846D02*X346400Y53096D01*
G54D66*X352700Y55346D02*Y55196D01*
G54D65*Y53096D02*Y50846D01*
X354200Y56846D02*Y51596D01*
X354950Y50846D01*
X357200D02*X359450D01*
X360200Y51596D01*
X359450Y52346D02*X360200Y51596D01*
X357200Y52346D02*X359450D01*
X356450Y53096D02*X357200Y52346D01*
X356450Y53096D02*X357200Y53846D01*
X359450D01*
X360200Y53096D01*
X356450Y51596D02*X357200Y50846D01*
X364700Y53846D02*Y51596D01*
X365450Y50846D01*
X366200D01*
X366950Y51596D01*
Y53846D02*Y51596D01*
X367700Y50846D01*
X368450D01*
X369200Y51596D01*
Y53846D02*Y51596D01*
G54D66*X371000Y55346D02*Y55196D01*
G54D65*Y53096D02*Y50846D01*
X375500Y56846D02*Y50846D01*
X374750D02*X375500Y51596D01*
X373250Y50846D02*X374750D01*
X372500Y51596D02*X373250Y50846D01*
X372500Y53096D02*Y51596D01*
Y53096D02*X373250Y53846D01*
X374750D01*
X375500Y53096D01*
X378050Y50846D02*X380300D01*
X377300Y51596D02*X378050Y50846D01*
X377300Y53096D02*Y51596D01*
Y53096D02*X378050Y53846D01*
X379550D01*
X380300Y53096D01*
X377300Y52346D02*X380300D01*
Y53096D02*Y52346D01*
X382100Y49346D02*X383600Y50846D01*
X388100Y53096D02*X391100Y56846D01*
X388100Y53096D02*X391850D01*
X391100Y56846D02*Y50846D01*
X393650Y56096D02*X394400Y56846D01*
X395900D01*
X396650Y56096D01*
X395900Y50846D02*X396650Y51596D01*
X394400Y50846D02*X395900D01*
X393650Y51596D02*X394400Y50846D01*
Y54146D02*X395900D01*
X396650Y56096D02*Y54896D01*
Y53396D02*Y51596D01*
Y53396D02*X395900Y54146D01*
X396650Y54896D02*X395900Y54146D01*
X398450Y56096D02*X399200Y56846D01*
X400700D01*
X401450Y56096D01*
X400700Y50846D02*X401450Y51596D01*
X399200Y50846D02*X400700D01*
X398450Y51596D02*X399200Y50846D01*
Y54146D02*X400700D01*
X401450Y56096D02*Y54896D01*
Y53396D02*Y51596D01*
Y53396D02*X400700Y54146D01*
X401450Y54896D02*X400700Y54146D01*
X403250Y50846D02*X404000D01*
X405800Y53096D02*X408800Y56846D01*
X405800Y53096D02*X409550D01*
X408800Y56846D02*Y50846D01*
X413600Y56846D02*X414350Y56096D01*
X412100Y56846D02*X413600D01*
X411350Y56096D02*X412100Y56846D01*
X411350Y56096D02*Y51596D01*
X412100Y50846D01*
X413600Y54146D02*X414350Y53396D01*
X411350Y54146D02*X413600D01*
X412100Y50846D02*X413600D01*
X414350Y51596D01*
Y53396D02*Y51596D01*
X416150Y53096D02*X419150Y56846D01*
X416150Y53096D02*X419900D01*
X419150Y56846D02*Y50846D01*
X421700Y56846D02*X424700D01*
X421700D02*Y53846D01*
X422450Y54596D01*
X423950D01*
X424700Y53846D01*
Y51596D01*
X423950Y50846D02*X424700Y51596D01*
X422450Y50846D02*X423950D01*
X421700Y51596D02*X422450Y50846D01*
X428750Y56846D02*X429500Y56096D01*
X427250Y56846D02*X428750D01*
X426500Y56096D02*X427250Y56846D01*
X426500Y56096D02*Y51596D01*
X427250Y50846D01*
X428750Y54146D02*X429500Y53396D01*
X426500Y54146D02*X428750D01*
X427250Y50846D02*X428750D01*
X429500Y51596D01*
Y53396D02*Y51596D01*
X432050Y50846D02*X435050Y56846D01*
X431300D02*X435050D01*
X440300Y53096D02*Y50846D01*
Y53096D02*X441050Y53846D01*
X441800D01*
X442550Y53096D01*
Y50846D01*
Y53096D02*X443300Y53846D01*
X444050D01*
X444800Y53096D01*
Y50846D01*
X439550Y53846D02*X440300Y53096D01*
G54D66*X446600Y55346D02*Y55196D01*
G54D65*Y53096D02*Y50846D01*
X448100Y56846D02*Y51596D01*
X448850Y50846D01*
X451100D02*X453350D01*
X454100Y51596D01*
X453350Y52346D02*X454100Y51596D01*
X451100Y52346D02*X453350D01*
X450350Y53096D02*X451100Y52346D01*
X450350Y53096D02*X451100Y53846D01*
X453350D01*
X454100Y53096D01*
X450350Y51596D02*X451100Y50846D01*
X458600Y56846D02*Y50846D01*
Y53096D02*X459350Y53846D01*
X460850D01*
X461600Y53096D01*
Y50846D01*
G54D66*X463400Y55346D02*Y55196D01*
G54D65*Y53096D02*Y50846D01*
X467150Y53846D02*X467900Y53096D01*
X465650Y53846D02*X467150D01*
X464900Y53096D02*X465650Y53846D01*
X464900Y53096D02*Y51596D01*
X465650Y50846D01*
X467150D01*
X467900Y51596D01*
X464900Y49346D02*X465650Y48596D01*
X467150D01*
X467900Y49346D01*
Y53846D02*Y49346D01*
X469700Y56846D02*Y50846D01*
Y53096D02*X470450Y53846D01*
X471950D01*
X472700Y53096D01*
Y50846D01*
X0Y-9500D02*X3000D01*
X3750Y-8750D01*
Y-6950D02*Y-8750D01*
X3000Y-6200D02*X3750Y-6950D01*
X750Y-6200D02*X3000D01*
X750Y-3500D02*Y-9500D01*
X0Y-3500D02*X3000D01*
X3750Y-4250D01*
Y-5450D01*
X3000Y-6200D02*X3750Y-5450D01*
X5550Y-7250D02*Y-8750D01*
Y-7250D02*X6300Y-6500D01*
X7800D01*
X8550Y-7250D01*
Y-8750D01*
X7800Y-9500D02*X8550Y-8750D01*
X6300Y-9500D02*X7800D01*
X5550Y-8750D02*X6300Y-9500D01*
X12600Y-6500D02*X13350Y-7250D01*
X11100Y-6500D02*X12600D01*
X10350Y-7250D02*X11100Y-6500D01*
X10350Y-7250D02*Y-8750D01*
X11100Y-9500D01*
X13350Y-6500D02*Y-8750D01*
X14100Y-9500D01*
X11100D02*X12600D01*
X13350Y-8750D01*
X16650Y-7250D02*Y-9500D01*
Y-7250D02*X17400Y-6500D01*
X18900D01*
X15900D02*X16650Y-7250D01*
X23700Y-3500D02*Y-9500D01*
X22950D02*X23700Y-8750D01*
X21450Y-9500D02*X22950D01*
X20700Y-8750D02*X21450Y-9500D01*
X20700Y-7250D02*Y-8750D01*
Y-7250D02*X21450Y-6500D01*
X22950D01*
X23700Y-7250D01*
X28200D02*Y-8750D01*
Y-7250D02*X28950Y-6500D01*
X30450D01*
X31200Y-7250D01*
Y-8750D01*
X30450Y-9500D02*X31200Y-8750D01*
X28950Y-9500D02*X30450D01*
X28200Y-8750D02*X28950Y-9500D01*
X33000Y-6500D02*Y-8750D01*
X33750Y-9500D01*
X35250D01*
X36000Y-8750D01*
Y-6500D02*Y-8750D01*
X38550Y-3500D02*Y-8750D01*
X39300Y-9500D01*
X37800Y-5750D02*X39300D01*
X40800Y-3500D02*Y-8750D01*
X41550Y-9500D01*
G54D66*X43050Y-5000D02*Y-5150D01*
G54D65*Y-7250D02*Y-9500D01*
X45300Y-7250D02*Y-9500D01*
Y-7250D02*X46050Y-6500D01*
X46800D01*
X47550Y-7250D01*
Y-9500D01*
X44550Y-6500D02*X45300Y-7250D01*
X50100Y-9500D02*X52350D01*
X49350Y-8750D02*X50100Y-9500D01*
X49350Y-7250D02*Y-8750D01*
Y-7250D02*X50100Y-6500D01*
X51600D01*
X52350Y-7250D01*
X49350Y-8000D02*X52350D01*
Y-7250D02*Y-8000D01*
G54D66*X56850Y-5000D02*Y-5150D01*
G54D65*Y-7250D02*Y-9500D01*
X59100D02*X61350D01*
X62100Y-8750D01*
X61350Y-8000D02*X62100Y-8750D01*
X59100Y-8000D02*X61350D01*
X58350Y-7250D02*X59100Y-8000D01*
X58350Y-7250D02*X59100Y-6500D01*
X61350D01*
X62100Y-7250D01*
X58350Y-8750D02*X59100Y-9500D01*
X67350Y-3500D02*Y-8750D01*
X68100Y-9500D01*
X66600Y-5750D02*X68100D01*
X69600Y-3500D02*Y-9500D01*
Y-7250D02*X70350Y-6500D01*
X71850D01*
X72600Y-7250D01*
Y-9500D01*
X75150D02*X77400D01*
X74400Y-8750D02*X75150Y-9500D01*
X74400Y-7250D02*Y-8750D01*
Y-7250D02*X75150Y-6500D01*
X76650D01*
X77400Y-7250D01*
X74400Y-8000D02*X77400D01*
Y-7250D02*Y-8000D01*
X82650Y-6500D02*X84900D01*
X81900Y-7250D02*X82650Y-6500D01*
X81900Y-7250D02*Y-8750D01*
X82650Y-9500D01*
X84900D01*
X87450D02*X89700D01*
X86700Y-8750D02*X87450Y-9500D01*
X86700Y-7250D02*Y-8750D01*
Y-7250D02*X87450Y-6500D01*
X88950D01*
X89700Y-7250D01*
X86700Y-8000D02*X89700D01*
Y-7250D02*Y-8000D01*
X92250Y-7250D02*Y-9500D01*
Y-7250D02*X93000Y-6500D01*
X93750D01*
X94500Y-7250D01*
Y-9500D01*
X91500Y-6500D02*X92250Y-7250D01*
X97050Y-3500D02*Y-8750D01*
X97800Y-9500D01*
X96300Y-5750D02*X97800D01*
X100050Y-9500D02*X102300D01*
X99300Y-8750D02*X100050Y-9500D01*
X99300Y-7250D02*Y-8750D01*
Y-7250D02*X100050Y-6500D01*
X101550D01*
X102300Y-7250D01*
X99300Y-8000D02*X102300D01*
Y-7250D02*Y-8000D01*
X104850Y-7250D02*Y-9500D01*
Y-7250D02*X105600Y-6500D01*
X107100D01*
X104100D02*X104850Y-7250D01*
X108900Y-3500D02*Y-8750D01*
X109650Y-9500D01*
G54D66*X111150Y-5000D02*Y-5150D01*
G54D65*Y-7250D02*Y-9500D01*
X113400Y-7250D02*Y-9500D01*
Y-7250D02*X114150Y-6500D01*
X114900D01*
X115650Y-7250D01*
Y-9500D01*
X112650Y-6500D02*X113400Y-7250D01*
X118200Y-9500D02*X120450D01*
X117450Y-8750D02*X118200Y-9500D01*
X117450Y-7250D02*Y-8750D01*
Y-7250D02*X118200Y-6500D01*
X119700D01*
X120450Y-7250D01*
X117450Y-8000D02*X120450D01*
Y-7250D02*Y-8000D01*
X124950Y-7250D02*Y-8750D01*
Y-7250D02*X125700Y-6500D01*
X127200D01*
X127950Y-7250D01*
Y-8750D01*
X127200Y-9500D02*X127950Y-8750D01*
X125700Y-9500D02*X127200D01*
X124950Y-8750D02*X125700Y-9500D01*
X130500Y-4250D02*Y-9500D01*
Y-4250D02*X131250Y-3500D01*
X132000D01*
X129750Y-6500D02*X131250D01*
X136950Y-3500D02*Y-8750D01*
X137700Y-9500D01*
X136200Y-5750D02*X137700D01*
X139200Y-3500D02*Y-9500D01*
Y-7250D02*X139950Y-6500D01*
X141450D01*
X142200Y-7250D01*
Y-9500D01*
G54D66*X144000Y-5000D02*Y-5150D01*
G54D65*Y-7250D02*Y-9500D01*
X146250D02*X148500D01*
X149250Y-8750D01*
X148500Y-8000D02*X149250Y-8750D01*
X146250Y-8000D02*X148500D01*
X145500Y-7250D02*X146250Y-8000D01*
X145500Y-7250D02*X146250Y-6500D01*
X148500D01*
X149250Y-7250D01*
X145500Y-8750D02*X146250Y-9500D01*
X153750Y-8750D02*X154500Y-9500D01*
X153750Y-7550D02*Y-8750D01*
Y-7550D02*X154800Y-6500D01*
X155700D01*
X156750Y-7550D01*
Y-8750D01*
X156000Y-9500D02*X156750Y-8750D01*
X154500Y-9500D02*X156000D01*
X153750Y-5450D02*X154800Y-6500D01*
X153750Y-4250D02*Y-5450D01*
Y-4250D02*X154500Y-3500D01*
X156000D01*
X156750Y-4250D01*
Y-5450D01*
X155700Y-6500D02*X156750Y-5450D01*
X158550Y-9500D02*X159300D01*
X161100Y-8750D02*X161850Y-9500D01*
X161100Y-4250D02*Y-8750D01*
Y-4250D02*X161850Y-3500D01*
X163350D01*
X164100Y-4250D01*
Y-8750D01*
X163350Y-9500D02*X164100Y-8750D01*
X161850Y-9500D02*X163350D01*
X161100Y-8000D02*X164100Y-5000D01*
X165900Y-8750D02*X166650Y-9500D01*
X165900Y-4250D02*Y-8750D01*
Y-4250D02*X166650Y-3500D01*
X168150D01*
X168900Y-4250D01*
Y-8750D01*
X168150Y-9500D02*X168900Y-8750D01*
X166650Y-9500D02*X168150D01*
X165900Y-8000D02*X168900Y-5000D01*
X170700Y-8750D02*X171450Y-9500D01*
X170700Y-4250D02*Y-8750D01*
Y-4250D02*X171450Y-3500D01*
X172950D01*
X173700Y-4250D01*
Y-8750D01*
X172950Y-9500D02*X173700Y-8750D01*
X171450Y-9500D02*X172950D01*
X170700Y-8000D02*X173700Y-5000D01*
X175500Y-8750D02*X176250Y-9500D01*
X175500Y-4250D02*Y-8750D01*
Y-4250D02*X176250Y-3500D01*
X177750D01*
X178500Y-4250D01*
Y-8750D01*
X177750Y-9500D02*X178500Y-8750D01*
X176250Y-9500D02*X177750D01*
X175500Y-8000D02*X178500Y-5000D01*
X180300Y-8750D02*X181050Y-9500D01*
X180300Y-4250D02*Y-8750D01*
Y-4250D02*X181050Y-3500D01*
X182550D01*
X183300Y-4250D01*
Y-8750D01*
X182550Y-9500D02*X183300Y-8750D01*
X181050Y-9500D02*X182550D01*
X180300Y-8000D02*X183300Y-5000D01*
X185100Y-8750D02*X185850Y-9500D01*
X185100Y-4250D02*Y-8750D01*
Y-4250D02*X185850Y-3500D01*
X187350D01*
X188100Y-4250D01*
Y-8750D01*
X187350Y-9500D02*X188100Y-8750D01*
X185850Y-9500D02*X187350D01*
X185100Y-8000D02*X188100Y-5000D01*
X193350Y-7250D02*Y-9500D01*
Y-7250D02*X194100Y-6500D01*
X194850D01*
X195600Y-7250D01*
Y-9500D01*
Y-7250D02*X196350Y-6500D01*
X197100D01*
X197850Y-7250D01*
Y-9500D01*
X192600Y-6500D02*X193350Y-7250D01*
G54D66*X199650Y-5000D02*Y-5150D01*
G54D65*Y-7250D02*Y-9500D01*
X201150Y-3500D02*Y-8750D01*
X201900Y-9500D01*
X206850Y-7250D02*Y-9500D01*
Y-7250D02*X207600Y-6500D01*
X209100D01*
X206100D02*X206850Y-7250D01*
X211650Y-9500D02*X213900D01*
X210900Y-8750D02*X211650Y-9500D01*
X210900Y-7250D02*Y-8750D01*
Y-7250D02*X211650Y-6500D01*
X213150D01*
X213900Y-7250D01*
X210900Y-8000D02*X213900D01*
Y-7250D02*Y-8000D01*
X216450Y-6500D02*X218700D01*
X215700Y-7250D02*X216450Y-6500D01*
X215700Y-7250D02*Y-8750D01*
X216450Y-9500D01*
X218700D01*
X221250Y-3500D02*Y-8750D01*
X222000Y-9500D01*
X220500Y-5750D02*X222000D01*
X225750Y-6500D02*X226500Y-7250D01*
X224250Y-6500D02*X225750D01*
X223500Y-7250D02*X224250Y-6500D01*
X223500Y-7250D02*Y-8750D01*
X224250Y-9500D01*
X226500Y-6500D02*Y-8750D01*
X227250Y-9500D01*
X224250D02*X225750D01*
X226500Y-8750D01*
X229800Y-7250D02*Y-9500D01*
Y-7250D02*X230550Y-6500D01*
X231300D01*
X232050Y-7250D01*
Y-9500D01*
X229050Y-6500D02*X229800Y-7250D01*
X236100Y-6500D02*X236850Y-7250D01*
X234600Y-6500D02*X236100D01*
X233850Y-7250D02*X234600Y-6500D01*
X233850Y-7250D02*Y-8750D01*
X234600Y-9500D01*
X236100D01*
X236850Y-8750D01*
X233850Y-11000D02*X234600Y-11750D01*
X236100D01*
X236850Y-11000D01*
Y-6500D02*Y-11000D01*
X238650Y-3500D02*Y-8750D01*
X239400Y-9500D01*
X241650D02*X243900D01*
X240900Y-8750D02*X241650Y-9500D01*
X240900Y-7250D02*Y-8750D01*
Y-7250D02*X241650Y-6500D01*
X243150D01*
X243900Y-7250D01*
X240900Y-8000D02*X243900D01*
Y-7250D02*Y-8000D01*
X248400Y-6500D02*X251400D01*
X255900Y-8750D02*X256650Y-9500D01*
X255900Y-4250D02*Y-8750D01*
Y-4250D02*X256650Y-3500D01*
X258150D01*
X258900Y-4250D01*
Y-8750D01*
X258150Y-9500D02*X258900Y-8750D01*
X256650Y-9500D02*X258150D01*
X255900Y-8000D02*X258900Y-5000D01*
X260700Y-11000D02*X262200Y-9500D01*
X264000Y-8750D02*X264750Y-9500D01*
X264000Y-4250D02*Y-8750D01*
Y-4250D02*X264750Y-3500D01*
X266250D01*
X267000Y-4250D01*
Y-8750D01*
X266250Y-9500D02*X267000Y-8750D01*
X264750Y-9500D02*X266250D01*
X264000Y-8000D02*X267000Y-5000D01*
X272250Y-3500D02*Y-8750D01*
X273000Y-9500D01*
X271500Y-5750D02*X273000D01*
X274500Y-7250D02*Y-8750D01*
Y-7250D02*X275250Y-6500D01*
X276750D01*
X277500Y-7250D01*
Y-8750D01*
X276750Y-9500D02*X277500Y-8750D01*
X275250Y-9500D02*X276750D01*
X274500Y-8750D02*X275250Y-9500D01*
X282000Y-4700D02*X283200Y-3500D01*
Y-9500D01*
X282000D02*X284250D01*
X286050Y-4250D02*X286800Y-3500D01*
X288300D01*
X289050Y-4250D01*
X288300Y-9500D02*X289050Y-8750D01*
X286800Y-9500D02*X288300D01*
X286050Y-8750D02*X286800Y-9500D01*
Y-6200D02*X288300D01*
X289050Y-4250D02*Y-5450D01*
Y-6950D02*Y-8750D01*
Y-6950D02*X288300Y-6200D01*
X289050Y-5450D02*X288300Y-6200D01*
X290850Y-4250D02*X291600Y-3500D01*
X293850D01*
X294600Y-4250D01*
Y-5750D01*
X290850Y-9500D02*X294600Y-5750D01*
X290850Y-9500D02*X294600D01*
X298650Y-3500D02*X299400Y-4250D01*
X297150Y-3500D02*X298650D01*
X296400Y-4250D02*X297150Y-3500D01*
X296400Y-4250D02*Y-8750D01*
X297150Y-9500D01*
X298650Y-6200D02*X299400Y-6950D01*
X296400Y-6200D02*X298650D01*
X297150Y-9500D02*X298650D01*
X299400Y-8750D01*
Y-6950D02*Y-8750D01*
X301200Y-9500D02*X301950D01*
X303750Y-4250D02*X304500Y-3500D01*
X306000D01*
X306750Y-4250D01*
X306000Y-9500D02*X306750Y-8750D01*
X304500Y-9500D02*X306000D01*
X303750Y-8750D02*X304500Y-9500D01*
Y-6200D02*X306000D01*
X306750Y-4250D02*Y-5450D01*
Y-6950D02*Y-8750D01*
Y-6950D02*X306000Y-6200D01*
X306750Y-5450D02*X306000Y-6200D01*
X309300Y-9500D02*X312300Y-3500D01*
X308550D02*X312300D01*
X314850Y-9500D02*X317850Y-3500D01*
X314100D02*X317850D01*
X320400Y-9500D02*X322650Y-6500D01*
Y-4250D02*Y-6500D01*
X321900Y-3500D02*X322650Y-4250D01*
X320400Y-3500D02*X321900D01*
X319650Y-4250D02*X320400Y-3500D01*
X319650Y-4250D02*Y-5750D01*
X320400Y-6500D01*
X322650D01*
X324450Y-3500D02*X327450D01*
X324450D02*Y-6500D01*
X325200Y-5750D01*
X326700D01*
X327450Y-6500D01*
Y-8750D01*
X326700Y-9500D02*X327450Y-8750D01*
X325200Y-9500D02*X326700D01*
X324450Y-8750D02*X325200Y-9500D01*
X329250Y-4250D02*X330000Y-3500D01*
X331500D01*
X332250Y-4250D01*
X331500Y-9500D02*X332250Y-8750D01*
X330000Y-9500D02*X331500D01*
X329250Y-8750D02*X330000Y-9500D01*
Y-6200D02*X331500D01*
X332250Y-4250D02*Y-5450D01*
Y-6950D02*Y-8750D01*
Y-6950D02*X331500Y-6200D01*
X332250Y-5450D02*X331500Y-6200D01*
X334050Y-11000D02*X335550Y-9500D01*
X337350Y-7250D02*X340350Y-3500D01*
X337350Y-7250D02*X341100D01*
X340350Y-3500D02*Y-9500D01*
X342900Y-4250D02*X343650Y-3500D01*
X345150D01*
X345900Y-4250D01*
X345150Y-9500D02*X345900Y-8750D01*
X343650Y-9500D02*X345150D01*
X342900Y-8750D02*X343650Y-9500D01*
Y-6200D02*X345150D01*
X345900Y-4250D02*Y-5450D01*
Y-6950D02*Y-8750D01*
Y-6950D02*X345150Y-6200D01*
X345900Y-5450D02*X345150Y-6200D01*
X347700Y-4250D02*X348450Y-3500D01*
X349950D01*
X350700Y-4250D01*
X349950Y-9500D02*X350700Y-8750D01*
X348450Y-9500D02*X349950D01*
X347700Y-8750D02*X348450Y-9500D01*
Y-6200D02*X349950D01*
X350700Y-4250D02*Y-5450D01*
Y-6950D02*Y-8750D01*
Y-6950D02*X349950Y-6200D01*
X350700Y-5450D02*X349950Y-6200D01*
X352500Y-9500D02*X353250D01*
X355050Y-7250D02*X358050Y-3500D01*
X355050Y-7250D02*X358800D01*
X358050Y-3500D02*Y-9500D01*
X362850Y-3500D02*X363600Y-4250D01*
X361350Y-3500D02*X362850D01*
X360600Y-4250D02*X361350Y-3500D01*
X360600Y-4250D02*Y-8750D01*
X361350Y-9500D01*
X362850Y-6200D02*X363600Y-6950D01*
X360600Y-6200D02*X362850D01*
X361350Y-9500D02*X362850D01*
X363600Y-8750D01*
Y-6950D02*Y-8750D01*
X365400Y-7250D02*X368400Y-3500D01*
X365400Y-7250D02*X369150D01*
X368400Y-3500D02*Y-9500D01*
X370950Y-3500D02*X373950D01*
X370950D02*Y-6500D01*
X371700Y-5750D01*
X373200D01*
X373950Y-6500D01*
Y-8750D01*
X373200Y-9500D02*X373950Y-8750D01*
X371700Y-9500D02*X373200D01*
X370950Y-8750D02*X371700Y-9500D01*
X378000Y-3500D02*X378750Y-4250D01*
X376500Y-3500D02*X378000D01*
X375750Y-4250D02*X376500Y-3500D01*
X375750Y-4250D02*Y-8750D01*
X376500Y-9500D01*
X378000Y-6200D02*X378750Y-6950D01*
X375750Y-6200D02*X378000D01*
X376500Y-9500D02*X378000D01*
X378750Y-8750D01*
Y-6950D02*Y-8750D01*
X381300Y-9500D02*X384300Y-3500D01*
X380550D02*X384300D01*
X389550Y-7250D02*Y-9500D01*
Y-7250D02*X390300Y-6500D01*
X391050D01*
X391800Y-7250D01*
Y-9500D01*
Y-7250D02*X392550Y-6500D01*
X393300D01*
X394050Y-7250D01*
Y-9500D01*
X388800Y-6500D02*X389550Y-7250D01*
G54D66*X395850Y-5000D02*Y-5150D01*
G54D65*Y-7250D02*Y-9500D01*
X397350Y-3500D02*Y-8750D01*
X398100Y-9500D01*
X400350D02*X402600D01*
X403350Y-8750D01*
X402600Y-8000D02*X403350Y-8750D01*
X400350Y-8000D02*X402600D01*
X399600Y-7250D02*X400350Y-8000D01*
X399600Y-7250D02*X400350Y-6500D01*
X402600D01*
X403350Y-7250D01*
X399600Y-8750D02*X400350Y-9500D01*
X200750Y71846D02*Y65846D01*
X202700Y71846D02*X203750Y70796D01*
Y66896D01*
X202700Y65846D02*X203750Y66896D01*
X200000Y65846D02*X202700D01*
X200000Y71846D02*X202700D01*
X207800Y68846D02*X208550Y68096D01*
X206300Y68846D02*X207800D01*
X205550Y68096D02*X206300Y68846D01*
X205550Y68096D02*Y66596D01*
X206300Y65846D01*
X208550Y68846D02*Y66596D01*
X209300Y65846D01*
X206300D02*X207800D01*
X208550Y66596D01*
X211850Y71846D02*Y66596D01*
X212600Y65846D01*
X211100Y69596D02*X212600D01*
X214850Y65846D02*X217100D01*
X214100Y66596D02*X214850Y65846D01*
X214100Y68096D02*Y66596D01*
Y68096D02*X214850Y68846D01*
X216350D01*
X217100Y68096D01*
X214100Y67346D02*X217100D01*
Y68096D02*Y67346D01*
X218900Y69596D02*X219650D01*
X218900Y68096D02*X219650D01*
X224150Y71846D02*Y65846D01*
Y71846D02*X226400Y68846D01*
X228650Y71846D01*
Y65846D01*
X230450Y68096D02*Y66596D01*
Y68096D02*X231200Y68846D01*
X232700D01*
X233450Y68096D01*
Y66596D01*
X232700Y65846D02*X233450Y66596D01*
X231200Y65846D02*X232700D01*
X230450Y66596D02*X231200Y65846D01*
X236000Y68096D02*Y65846D01*
Y68096D02*X236750Y68846D01*
X237500D01*
X238250Y68096D01*
Y65846D01*
X235250Y68846D02*X236000Y68096D01*
X242750Y71846D02*Y65846D01*
Y71846D02*X245750D01*
X242750Y69146D02*X245000D01*
X248300Y65846D02*X250550D01*
X247550Y66596D02*X248300Y65846D01*
X247550Y68096D02*Y66596D01*
Y68096D02*X248300Y68846D01*
X249800D01*
X250550Y68096D01*
X247550Y67346D02*X250550D01*
Y68096D02*Y67346D01*
X252350Y71846D02*Y65846D01*
Y66596D02*X253100Y65846D01*
X254600D01*
X255350Y66596D01*
Y68096D02*Y66596D01*
X254600Y68846D02*X255350Y68096D01*
X253100Y68846D02*X254600D01*
X252350Y68096D02*X253100Y68846D01*
X259850Y70646D02*X261050Y71846D01*
Y65846D01*
X259850D02*X262100D01*
X263900Y66596D02*X264650Y65846D01*
X263900Y67796D02*Y66596D01*
Y67796D02*X264950Y68846D01*
X265850D01*
X266900Y67796D01*
Y66596D01*
X266150Y65846D02*X266900Y66596D01*
X264650Y65846D02*X266150D01*
X263900Y69896D02*X264950Y68846D01*
X263900Y71096D02*Y69896D01*
Y71096D02*X264650Y71846D01*
X266150D01*
X266900Y71096D01*
Y69896D01*
X265850Y68846D02*X266900Y69896D01*
X271400Y70646D02*X272600Y71846D01*
Y65846D01*
X271400D02*X273650D01*
X275450Y70646D02*X276650Y71846D01*
Y65846D01*
X275450D02*X277700D01*
X279500Y69596D02*X280250D01*
X279500Y68096D02*X280250D01*
X282050Y70646D02*X283250Y71846D01*
Y65846D01*
X282050D02*X284300D01*
X286100Y71846D02*X289100D01*
X286100D02*Y68846D01*
X286850Y69596D01*
X288350D01*
X289100Y68846D01*
Y66596D01*
X288350Y65846D02*X289100Y66596D01*
X286850Y65846D02*X288350D01*
X286100Y66596D02*X286850Y65846D01*
X290900Y69596D02*X291650D01*
X290900Y68096D02*X291650D01*
X293450Y66596D02*X294200Y65846D01*
X293450Y71096D02*Y66596D01*
Y71096D02*X294200Y71846D01*
X295700D01*
X296450Y71096D01*
Y66596D01*
X295700Y65846D02*X296450Y66596D01*
X294200Y65846D02*X295700D01*
X293450Y67346D02*X296450Y70346D01*
X298250Y66596D02*X299000Y65846D01*
X298250Y71096D02*Y66596D01*
Y71096D02*X299000Y71846D01*
X300500D01*
X301250Y71096D01*
Y66596D01*
X300500Y65846D02*X301250Y66596D01*
X299000Y65846D02*X300500D01*
X298250Y67346D02*X301250Y70346D01*
X305750Y71096D02*X306500Y71846D01*
X308750D01*
X309500Y71096D01*
Y69596D01*
X305750Y65846D02*X309500Y69596D01*
X305750Y65846D02*X309500D01*
X311300Y66596D02*X312050Y65846D01*
X311300Y71096D02*Y66596D01*
Y71096D02*X312050Y71846D01*
X313550D01*
X314300Y71096D01*
Y66596D01*
X313550Y65846D02*X314300Y66596D01*
X312050Y65846D02*X313550D01*
X311300Y67346D02*X314300Y70346D01*
X316100Y70646D02*X317300Y71846D01*
Y65846D01*
X316100D02*X318350D01*
X320150Y71096D02*X320900Y71846D01*
X322400D01*
X323150Y71096D01*
X322400Y65846D02*X323150Y66596D01*
X320900Y65846D02*X322400D01*
X320150Y66596D02*X320900Y65846D01*
Y69146D02*X322400D01*
X323150Y71096D02*Y69896D01*
Y68396D02*Y66596D01*
Y68396D02*X322400Y69146D01*
X323150Y69896D02*X322400Y69146D01*
X327650Y71846D02*Y66596D01*
X328400Y65846D01*
X329900D01*
X330650Y66596D01*
Y71846D02*Y66596D01*
X332450Y71846D02*X335450D01*
X333950D02*Y65846D01*
X338300D02*X340250D01*
X337250Y66896D02*X338300Y65846D01*
X337250Y70796D02*Y66896D01*
Y70796D02*X338300Y71846D01*
X340250D01*
X200000Y85346D02*Y80846D01*
Y85346D02*X201050Y86846D01*
X202700D01*
X203750Y85346D01*
Y80846D01*
X200000Y83846D02*X203750D01*
X205550D02*Y81596D01*
X206300Y80846D01*
X207800D01*
X208550Y81596D01*
Y83846D02*Y81596D01*
X211100Y86846D02*Y81596D01*
X211850Y80846D01*
X210350Y84596D02*X211850D01*
X213350Y86846D02*Y80846D01*
Y83096D02*X214100Y83846D01*
X215600D01*
X216350Y83096D01*
Y80846D01*
X218150Y83096D02*Y81596D01*
Y83096D02*X218900Y83846D01*
X220400D01*
X221150Y83096D01*
Y81596D01*
X220400Y80846D02*X221150Y81596D01*
X218900Y80846D02*X220400D01*
X218150Y81596D02*X218900Y80846D01*
X223700Y83096D02*Y80846D01*
Y83096D02*X224450Y83846D01*
X225950D01*
X222950D02*X223700Y83096D01*
X227750Y84596D02*X228500D01*
X227750Y83096D02*X228500D01*
X200000Y101846D02*X203000D01*
X201500D02*Y95846D01*
G54D66*X204800Y100346D02*Y100196D01*
G54D65*Y98096D02*Y95846D01*
X207050Y101846D02*Y96596D01*
X207800Y95846D01*
X206300Y99596D02*X207800D01*
X209300Y101846D02*Y96596D01*
X210050Y95846D01*
X212300D02*X214550D01*
X211550Y96596D02*X212300Y95846D01*
X211550Y98096D02*Y96596D01*
Y98096D02*X212300Y98846D01*
X213800D01*
X214550Y98096D01*
X211550Y97346D02*X214550D01*
Y98096D02*Y97346D01*
X216350Y99596D02*X217100D01*
X216350Y98096D02*X217100D01*
X221600Y98846D02*Y96596D01*
X222350Y95846D01*
X223100D01*
X223850Y96596D01*
Y98846D02*Y96596D01*
X224600Y95846D01*
X225350D01*
X226100Y96596D01*
Y98846D02*Y96596D01*
X228650Y95846D02*X230900D01*
X227900Y96596D02*X228650Y95846D01*
X227900Y98096D02*Y96596D01*
Y98096D02*X228650Y98846D01*
X230150D01*
X230900Y98096D01*
X227900Y97346D02*X230900D01*
Y98096D02*Y97346D01*
X234950Y98846D02*X235700Y98096D01*
X233450Y98846D02*X234950D01*
X232700Y98096D02*X233450Y98846D01*
X232700Y98096D02*Y96596D01*
X233450Y95846D01*
X235700Y98846D02*Y96596D01*
X236450Y95846D01*
X233450D02*X234950D01*
X235700Y96596D01*
X239000Y98096D02*Y95846D01*
Y98096D02*X239750Y98846D01*
X241250D01*
X238250D02*X239000Y98096D01*
X243050Y101846D02*Y96596D01*
X243800Y95846D01*
G54D66*X245300Y100346D02*Y100196D01*
G54D65*Y98096D02*Y95846D01*
X247550Y98096D02*Y95846D01*
Y98096D02*X248300Y98846D01*
X249050D01*
X249800Y98096D01*
Y95846D01*
X246800Y98846D02*X247550Y98096D01*
X251600Y101846D02*Y95846D01*
Y98096D02*X253850Y95846D01*
X251600Y98096D02*X253100Y99596D01*
X258350Y98846D02*X261350D01*
X265850Y101846D02*Y95846D01*
Y101846D02*X268850D01*
X265850Y99146D02*X268100D01*
X272900Y98846D02*X273650Y98096D01*
X271400Y98846D02*X272900D01*
X270650Y98096D02*X271400Y98846D01*
X270650Y98096D02*Y96596D01*
X271400Y95846D01*
X273650Y98846D02*Y96596D01*
X274400Y95846D01*
X271400D02*X272900D01*
X273650Y96596D01*
X276200Y101846D02*Y95846D01*
Y96596D02*X276950Y95846D01*
X278450D01*
X279200Y96596D01*
Y98096D02*Y96596D01*
X278450Y98846D02*X279200Y98096D01*
X276950Y98846D02*X278450D01*
X276200Y98096D02*X276950Y98846D01*
X281750Y98096D02*Y95846D01*
Y98096D02*X282500Y98846D01*
X284000D01*
X281000D02*X281750Y98096D01*
G54D66*X285800Y100346D02*Y100196D01*
G54D65*Y98096D02*Y95846D01*
X288050Y98846D02*X290300D01*
X287300Y98096D02*X288050Y98846D01*
X287300Y98096D02*Y96596D01*
X288050Y95846D01*
X290300D01*
X294350Y98846D02*X295100Y98096D01*
X292850Y98846D02*X294350D01*
X292100Y98096D02*X292850Y98846D01*
X292100Y98096D02*Y96596D01*
X292850Y95846D01*
X295100Y98846D02*Y96596D01*
X295850Y95846D01*
X292850D02*X294350D01*
X295100Y96596D01*
X298400Y101846D02*Y96596D01*
X299150Y95846D01*
X297650Y99596D02*X299150D01*
G54D66*X300650Y100346D02*Y100196D01*
G54D65*Y98096D02*Y95846D01*
X302150Y98096D02*Y96596D01*
Y98096D02*X302900Y98846D01*
X304400D01*
X305150Y98096D01*
Y96596D01*
X304400Y95846D02*X305150Y96596D01*
X302900Y95846D02*X304400D01*
X302150Y96596D02*X302900Y95846D01*
X307700Y98096D02*Y95846D01*
Y98096D02*X308450Y98846D01*
X309200D01*
X309950Y98096D01*
Y95846D01*
X306950Y98846D02*X307700Y98096D01*
X315200Y101846D02*Y95846D01*
X317150Y101846D02*X318200Y100796D01*
Y96896D01*
X317150Y95846D02*X318200Y96896D01*
X314450Y95846D02*X317150D01*
X314450Y101846D02*X317150D01*
X320750Y98096D02*Y95846D01*
Y98096D02*X321500Y98846D01*
X323000D01*
X320000D02*X320750Y98096D01*
X327050Y98846D02*X327800Y98096D01*
X325550Y98846D02*X327050D01*
X324800Y98096D02*X325550Y98846D01*
X324800Y98096D02*Y96596D01*
X325550Y95846D01*
X327800Y98846D02*Y96596D01*
X328550Y95846D01*
X325550D02*X327050D01*
X327800Y96596D01*
X330350Y98846D02*Y96596D01*
X331100Y95846D01*
X331850D01*
X332600Y96596D01*
Y98846D02*Y96596D01*
X333350Y95846D01*
X334100D01*
X334850Y96596D01*
Y98846D02*Y96596D01*
G54D66*X336650Y100346D02*Y100196D01*
G54D65*Y98096D02*Y95846D01*
X338900Y98096D02*Y95846D01*
Y98096D02*X339650Y98846D01*
X340400D01*
X341150Y98096D01*
Y95846D01*
X338150Y98846D02*X338900Y98096D01*
X345200Y98846D02*X345950Y98096D01*
X343700Y98846D02*X345200D01*
X342950Y98096D02*X343700Y98846D01*
X342950Y98096D02*Y96596D01*
X343700Y95846D01*
X345200D01*
X345950Y96596D01*
X342950Y94346D02*X343700Y93596D01*
X345200D01*
X345950Y94346D01*
Y98846D02*Y94346D01*
M02*
