G04 start of page 6 for group -4063 idx -4063 *
G04 Title: wearlink, componentmask *
G04 Creator: pcb 1.99z *
G04 CreationDate: Sat Feb 23 13:18:20 2013 UTC *
G04 For: dijkstra *
G04 Format: Gerber/RS-274X *
G04 PCB-Dimensions (mil): 1326.38 433.46 *
G04 PCB-Coordinate-Origin: lower left *
%MOIN*%
%FSLAX25Y25*%
%LNTOPMASK*%
%ADD107R,0.0300X0.0300*%
%ADD106R,0.0611X0.0611*%
%ADD105C,0.0660*%
%ADD104C,0.0001*%
%ADD103C,0.0709*%
G54D103*X28642Y27677D03*
X40453Y21772D03*
X28642Y15866D03*
G54D104*G36*
X108806Y10150D02*Y3550D01*
X115406D01*
Y10150D01*
X108806D01*
G37*
G54D105*X112106Y16850D03*
Y26850D03*
Y36850D03*
G54D106*X92815Y14744D02*Y14350D01*
X84941Y14744D02*Y14350D01*
Y24705D02*Y24311D01*
Y34705D02*Y34311D01*
X92815Y24705D02*Y24311D01*
Y34705D02*Y34311D01*
X32579Y6221D02*Y5827D01*
X24705Y6221D02*Y5827D01*
G54D107*X51362Y34508D02*X57862D01*
X51362Y29508D02*X57862D01*
X51362Y24508D02*X57862D01*
X71862D02*X78362D01*
X71862Y29508D02*X78362D01*
X71862Y34508D02*X78362D01*
X71862Y39508D02*X78362D01*
X51362D02*X57862D01*
M02*
